<?xml version="1.0" encoding="UTF-8" standalone="no"?>
<!DOCTYPE svg PUBLIC "-//W3C//DTD SVG 1.1//EN" "http://www.w3.org/Graphics/SVG/1.1/DTD/svg11.dtd">
<svg width="100%" height="100%" viewBox="0 0 315 330" version="1.1" xmlns="http://www.w3.org/2000/svg" xmlns:xlink="http://www.w3.org/1999/xlink" xml:space="preserve" xmlns:serif="http://www.serif.com/" style="fill-rule:evenodd;clip-rule:evenodd;stroke-linejoin:round;stroke-miterlimit:2;">
    <g transform="matrix(0.899575,0,0,0.834976,16.8781,14.4692)">
        <rect x="-26.336" y="-24.793" width="366.487" height="415.863"/>
    </g>
    <g transform="matrix(0.877993,0,0,0.877993,9.22247,34.2643)">
        <rect x="10.652" y="18.647" width="168.98" height="13.689" style="fill:rgb(219,217,216);"/>
    </g>
    <g transform="matrix(0.877993,0,0,0.877993,8.22401,55.5449)">
        <path d="M183.7,15.364L183.7,35.767L146.259,35.767L146.259,33.041L155.845,33.041C156.281,33.041 156.499,32.823 156.499,32.388L156.499,20.114C156.499,19.679 156.281,19.461 155.845,19.461L123.093,19.461C122.657,19.461 122.439,19.679 122.439,20.114L122.439,32.388C122.439,32.823 122.657,33.041 123.093,33.041L132.751,33.041L132.751,35.767L94.625,35.767L94.625,33.041L114.378,33.041C114.814,33.041 115.032,32.823 115.032,32.388L115.032,20.042C115.032,19.655 114.814,19.461 114.378,19.461L81.698,19.461C81.262,19.461 81.045,19.655 81.045,20.042L81.045,35.767L57.079,35.767L57.079,20.042C57.079,19.655 56.861,19.461 56.426,19.461L44.153,19.461C43.717,19.461 43.499,19.655 43.499,20.042L43.499,35.767L14.067,35.767L14.067,15.364L183.7,15.364Z" style="fill:rgb(219,217,216);"/>
    </g>
    <g transform="matrix(0.877993,0,0,0.877993,6.22401,55.5449)">
        <rect x="1.827" y="8.098" width="12.24" height="7.266" style="fill:rgb(219,217,216);"/>
    </g>
    <g transform="matrix(0.877993,0,0,0.877993,6.22401,55.5449)">
        <rect x="14.067" y="8.098" width="153.615" height="7.266" style="fill:rgb(219,217,216);"/>
    </g>
    <g transform="matrix(0.877993,0,0,0.877993,18.1386,79.8378)">
        <rect x="0.497" y="11.933" width="29.432" height="23.405" style="fill:rgb(219,217,216);"/>
    </g>
    <g transform="matrix(0.877993,0,0,0.877993,18.1386,79.8378)">
        <path d="M67.474,11.933L67.474,35.338L57.017,35.338L57.017,33.259C57.017,32.824 56.823,32.606 56.436,32.606L43.509,32.606L43.509,11.933L67.474,11.933Z" style="fill:rgb(219,217,216);"/>
    </g>
    <g transform="matrix(0.877993,0,0,0.877993,18.1386,79.8378)">
        <path d="M119.181,11.933L119.181,35.338L101.461,35.338L101.461,33.114C101.461,32.727 101.243,32.533 100.808,32.533L81.055,32.533L81.055,24.327L91.948,26.578L92.093,26.578C92.19,26.578 92.335,26.53 92.529,26.433C92.674,26.288 92.747,26.118 92.747,25.925L92.747,13.724C92.747,13.385 92.577,13.167 92.238,13.07L86.588,11.933L119.181,11.933Z" style="fill:rgb(219,217,216);"/>
    </g>
    <g transform="matrix(0.877993,0,0,0.877993,18.1386,79.8378)">
        <rect x="132.689" y="11.933" width="67.107" height="23.405" style="fill:rgb(219,217,216);"/>
    </g>
    <g transform="matrix(0.877993,0,0,0.877993,18.1386,79.8378)">
        <rect x="-6.186" y="8.098" width="6.683" height="3.835" style="fill:rgb(219,217,216);"/>
    </g>
    <g transform="matrix(0.877993,0,0,0.877993,18.1386,79.8378)">
        <rect x="0.497" y="8.098" width="29.432" height="3.835" style="fill:rgb(219,217,216);"/>
    </g>
    <g transform="matrix(0.877993,0,0,0.877993,18.1386,79.8378)">
        <rect x="43.509" y="8.098" width="23.965" height="3.835" style="fill:rgb(219,217,216);"/>
    </g>
    <g transform="matrix(0.877993,0,0,0.877993,18.1386,79.8378)">
        <path d="M119.181,11.933L86.588,11.933L81.055,10.819L81.055,8.098L119.181,8.098L119.181,11.933Z" style="fill:rgb(219,217,216);"/>
    </g>
    <g transform="matrix(0.877993,0,0,0.877993,18.1386,79.8378)">
        <rect x="132.689" y="8.098" width="47.249" height="3.835" style="fill:rgb(219,217,216);"/>
    </g>
    <g transform="matrix(0.877993,0,0,0.877993,26.3551,103.754)">
        <rect x="-19.807" y="12.362" width="10.946" height="22.845" style="fill:rgb(219,217,216);"/>
    </g>
    <g transform="matrix(0.877993,0,0,0.877993,28.3551,103.754)">
        <path d="M203.86,12.362L203.86,35.207L175.042,35.207L175.042,25.464C175.042,25.077 174.824,24.883 174.388,24.883L141.709,24.883C141.273,24.883 141.055,25.077 141.055,25.464L141.055,35.207L132.994,35.207L132.994,25.537C132.994,25.295 132.921,25.125 132.776,25.028C132.582,24.835 132.413,24.786 132.268,24.883L109.755,29.24L108.956,25.391C108.956,25.198 108.859,25.052 108.666,24.956C108.472,24.859 108.327,24.835 108.23,24.883L92.108,28.296L92.108,25.537C92.108,25.101 91.89,24.883 91.454,24.883L79.181,24.883C78.745,24.883 78.528,25.101 78.528,25.537L78.528,35.207L-8.861,35.207L-8.861,12.362L20.571,12.362L20.571,18.293C20.571,18.68 20.788,18.874 21.224,18.874L47.078,18.874C47.465,18.874 47.658,18.68 47.658,18.293L47.658,12.362L58.116,12.362L58.116,18.22C58.116,18.656 58.334,18.874 58.77,18.874L91.449,18.874C91.885,18.874 92.103,18.656 92.103,18.22L92.103,12.362L109.823,12.362L109.823,18.293C109.823,18.68 110.016,18.874 110.404,18.874L122.677,18.874C123.113,18.874 123.33,18.68 123.33,18.293L123.33,12.362L203.86,12.362Z" style="fill:rgb(219,217,216);"/>
    </g>
    <g transform="matrix(0.877993,0,0,0.877993,26.3551,103.754)">
        <rect x="-19.807" y="8.098" width="10.946" height="4.264" style="fill:rgb(219,217,216);"/>
    </g>
    <g transform="matrix(0.877993,0,0,0.877993,26.3551,103.754)">
        <rect x="-8.861" y="8.098" width="29.432" height="4.264" style="fill:rgb(219,217,216);"/>
    </g>
    <g transform="matrix(0.877993,0,0,0.877993,26.3551,103.754)">
        <rect x="47.658" y="8.098" width="10.458" height="4.264" style="fill:rgb(219,217,216);"/>
    </g>
    <g transform="matrix(0.877993,0,0,0.877993,26.3551,103.754)">
        <rect x="92.103" y="8.098" width="17.72" height="4.264" style="fill:rgb(219,217,216);"/>
    </g>
    <g transform="matrix(0.877993,0,0,0.877993,26.3551,103.754)">
        <rect x="123.33" y="8.098" width="51.639" height="4.264" style="fill:rgb(219,217,216);"/>
    </g>
    <g transform="matrix(0.877993,0,0,0.877993,13.4373,127.555)">
        <rect x="60.328" y="12.493" width="37.743" height="20.091" style="fill:rgb(219,217,216);"/>
    </g>
    <g transform="matrix(0.877993,0,0,0.877993,9.1967,127.555)">
        <path d="M118.55,32.584L111.651,32.584L111.651,14.332L118.55,13.025L118.55,32.584Z" style="fill:rgb(219,217,216);"/>
    </g>
    <g transform="matrix(0.877993,0,0,0.877993,9.1967,127.555)">
        <path d="M138.956,32.584L132.13,32.584L132.13,15.058L138.956,13.678L138.956,32.584Z" style="fill:rgb(219,217,216);"/>
    </g>
    <g transform="matrix(0.877993,0,0,0.877993,9.1967,127.555)">
        <rect x="152.537" y="12.493" width="8.061" height="20.091" style="fill:rgb(219,217,216);"/>
    </g>
    <g transform="matrix(0.877993,0,0,0.877993,9.1967,127.555)">
        <path d="M217.69,12.493L217.69,32.584L174.178,32.584L174.178,30.309L185.071,32.56L185.216,32.56C185.313,32.56 185.459,32.512 185.652,32.415C185.797,32.27 185.87,32.1 185.87,31.906L185.87,19.706C185.87,19.367 185.701,19.149 185.362,19.052L174.178,16.801L174.178,12.493L217.69,12.493Z" style="fill:rgb(219,217,216);"/>
    </g>
    <g transform="matrix(0.877993,0,0,0.877993,9.1967,127.555)">
        <rect x="-0.264" y="8.098" width="10.946" height="4.394" style="fill:rgb(219,217,216);"/>
    </g>
    <g transform="matrix(0.877993,0,0,0.877993,9.1967,127.555)">
        <rect x="10.681" y="8.098" width="87.389" height="4.394" style="fill:rgb(219,217,216);"/>
    </g>
    <g transform="matrix(0.877993,0,0,0.877993,9.1967,127.555)">
        <rect x="152.537" y="8.098" width="8.061" height="4.394" style="fill:rgb(219,217,216);"/>
    </g>
    <g transform="matrix(0.877993,0,0,0.877993,9.1967,127.555)">
        <path d="M236.182,12.493L174.178,12.493L174.178,11.354L193.931,11.354C194.367,11.354 194.585,11.137 194.585,10.701L194.585,8.098L236.182,8.098L236.182,12.493Z" style="fill:rgb(219,217,216);"/>
    </g>
    <g transform="matrix(0.877993,0,0,0.877993,34.9737,149.054)">
        <rect x="-19.807" y="15.116" width="1.129" height="20.984" style="fill:rgb(219,217,216);"/>
    </g>
    <g transform="matrix(0.877993,0,0,0.877993,36.9737,149.054)">
        <path d="M283.103,15.116L283.103,36.1L274.602,36.1L274.602,33.908C274.602,33.602 274.43,33.449 274.086,33.449L248.27,33.449C247.926,33.449 247.754,33.602 247.754,33.908L247.754,36.1L241.673,36.1L241.673,33.966C241.673,33.622 241.501,33.449 241.157,33.449L222.627,33.449C222.359,33.449 222.187,33.583 222.11,33.851L221.652,36.1L212.817,36.1L212.817,33.966C212.817,33.622 212.645,33.449 212.3,33.449L202.605,33.449C202.261,33.449 202.089,33.622 202.089,33.966L202.089,36.1L196.639,36.1L196.639,33.966C196.639,33.622 196.467,33.449 196.123,33.449L186.427,33.449C186.083,33.449 185.911,33.622 185.911,33.966L185.911,36.1L177.085,36.1L176.675,33.851C176.598,33.583 176.426,33.449 176.158,33.449L154.875,33.449C154.531,33.449 154.359,33.622 154.359,33.966L154.359,36.1L147.188,36.1L147.188,33.966C147.188,33.622 147.015,33.449 146.671,33.449L120.913,33.449C120.569,33.449 120.397,33.622 120.397,33.966L120.397,36.1L111.542,36.1L111.906,34.023C111.906,33.832 111.868,33.698 111.791,33.622C111.677,33.507 111.543,33.449 111.39,33.449L82.992,33.449C82.648,33.449 82.476,33.602 82.476,33.908L82.476,36.1L75.363,36.1L75.363,33.966C75.363,33.622 75.19,33.449 74.846,33.449L48.973,33.449C48.629,33.449 48.457,33.622 48.457,33.966L48.457,36.1L41.573,36.1L41.573,33.966C41.573,33.813 41.515,33.679 41.401,33.564C41.248,33.488 41.095,33.449 40.942,33.449L27.181,36.1L25.452,36.1L25.452,33.966C25.452,33.622 25.28,33.449 24.936,33.449L15.241,33.449C14.896,33.449 14.724,33.622 14.724,33.966L14.724,36.1L6.119,36.1L6.119,33.966C6.119,33.622 5.947,33.449 5.603,33.449L-4.092,33.449C-4.398,33.449 -4.551,33.622 -4.551,33.966L-4.551,36.1L-18.678,36.1L-18.678,15.116L68.711,15.116L68.711,27.029C68.711,27.464 68.929,27.682 69.365,27.682L81.638,27.682C82.074,27.682 82.292,27.464 82.292,27.029L82.292,15.116L89.191,15.116L89.191,27.029C89.191,27.464 89.409,27.682 89.844,27.682L102.117,27.682C102.553,27.682 102.771,27.464 102.771,27.029L102.771,15.116L109.597,15.116L109.597,27.029C109.597,27.464 109.815,27.682 110.251,27.682L122.524,27.682C122.96,27.682 123.178,27.464 123.178,27.029L123.178,15.116L131.239,15.116L131.239,26.956C131.239,27.392 131.457,27.61 131.892,27.61L164.572,27.61C165.008,27.61 165.226,27.392 165.226,26.956L165.226,15.116L283.103,15.116Z" style="fill:rgb(219,217,216);"/>
    </g>
    <g transform="matrix(0.877993,0,0,0.877993,34.9737,149.054)">
        <rect x="-19.807" y="8.098" width="1.129" height="7.018" style="fill:rgb(219,217,216);"/>
    </g>
    <g transform="matrix(0.877993,0,0,0.877993,34.9737,149.054)">
        <rect x="22.426" y="8.098" width="46.285" height="7.018" style="fill:rgb(219,217,216);"/>
    </g>
    <g transform="matrix(0.877993,0,0,0.877993,34.9737,149.054)">
        <rect x="82.292" y="8.098" width="6.899" height="7.018" style="fill:rgb(219,217,216);"/>
    </g>
    <g transform="matrix(0.877993,0,0,0.877993,34.9737,149.054)">
        <rect x="102.771" y="8.098" width="6.826" height="7.018" style="fill:rgb(219,217,216);"/>
    </g>
    <g transform="matrix(0.877993,0,0,0.877993,34.9737,149.054)">
        <rect x="123.178" y="8.098" width="8.061" height="7.018" style="fill:rgb(219,217,216);"/>
    </g>
    <g transform="matrix(0.877993,0,0,0.877993,34.9737,149.054)">
        <path d="M283.103,15.116L165.226,15.116L165.226,14.61C165.226,14.223 165.008,14.029 164.572,14.029L144.819,14.029L144.819,8.098L283.103,8.098L283.103,15.116Z" style="fill:rgb(219,217,216);"/>
    </g>
    <g transform="matrix(0.877993,0,0,0.877993,27.6573,173.639)">
        <path d="M-11.474,11.6L-11.474,8.098L-19.807,8.098L-19.807,39.602L-13.88,39.602L-13.88,34.586L-10.344,34.586L-10.344,11.6L-11.474,11.6Z" style="fill:rgb(219,217,216);"/>
    </g>
    <g transform="matrix(0.538229,0,0,0.877993,126.677,173.639)">
        <path d="M291.436,34.586L291.436,11.6L322.518,11.704L322.518,34.69L291.436,34.586Z" style="fill:rgb(219,217,216);"/>
    </g>
    <g transform="matrix(0.877993,0,0,0.877993,27.6573,173.639)">
        <path d="M108.479,16.176L101.594,16.176L101.594,22.429L107.331,22.429L108.479,16.176Z" style="fill:rgb(219,217,216);"/>
    </g>
    <g transform="matrix(0.877993,0,0,0.877993,27.6573,173.639)">
        <rect x="-10.344" y="11.6" width="14.126" height="22.986" style="fill:rgb(219,217,216);"/>
    </g>
    <g transform="matrix(0.877993,0,0,0.877993,27.6573,173.639)">
        <rect x="14.452" y="11.6" width="8.605" height="22.986" style="fill:rgb(219,217,216);"/>
    </g>
    <g transform="matrix(0.877993,0,0,0.877993,27.6573,173.639)">
        <path d="M39.178,34.586L33.785,34.586L33.785,19.102L39.178,18.012L39.178,34.586Z" style="fill:rgb(219,217,216);"/>
    </g>
    <g transform="matrix(0.877993,0,0,0.877993,28.6573,173.639)">
        <path d="M56.79,11.6L56.79,15.66C56.79,16.004 56.962,16.176 57.306,16.176L64.936,16.176L64.936,34.586L49.906,34.586L49.906,11.6L56.79,11.6Z" style="fill:rgb(219,217,216);"/>
    </g>
    <g transform="matrix(0.877993,0,0,0.877993,28.6573,173.639)">
        <path d="M90.809,11.6L90.809,34.586L75.607,34.586L75.607,16.176L83.179,16.176C83.523,16.176 83.696,16.004 83.696,15.66L83.696,11.6L90.809,11.6Z" style="fill:rgb(219,217,216);"/>
    </g>
    <g transform="matrix(0.877993,0,0,0.877993,27.6573,173.639)">
        <path d="M107.135,34.586L101.594,34.586L101.594,33.1L106.872,33.1L107.135,34.586Z" style="fill:rgb(219,217,216);"/>
    </g>
    <g transform="matrix(0.877993,0,0,0.877993,28.6573,173.639)">
        <path d="M128.73,11.6L128.73,34.586L117.929,34.586L116.568,26.961L119.261,11.6L128.73,11.6Z" style="fill:rgb(219,217,216);"/>
    </g>
    <g transform="matrix(0.877993,0,0,0.877993,27.6573,173.639)">
        <rect x="139.4" y="16.233" width="5.393" height="18.353" style="fill:rgb(219,217,216);"/>
    </g>
    <g transform="matrix(0.877993,0,0,0.877993,27.6573,173.639)">
        <rect x="155.521" y="11.6" width="7.171" height="22.986" style="fill:rgb(219,217,216);"/>
    </g>
    <g transform="matrix(0.877993,0,0,0.877993,27.6573,173.639)">
        <path d="M173.362,34.586L178.984,34.586L178.984,27.707L176.862,16.119L173.362,16.119L173.362,34.586Z" style="fill:rgb(219,217,216);"/>
    </g>
    <g transform="matrix(0.877993,0,0,0.877993,27.6573,173.639)">
        <path d="M194.244,11.6L194.244,34.586L188.966,34.586L188.966,27.535L186.058,11.6L194.244,11.6Z" style="fill:rgb(219,217,216);"/>
    </g>
    <g transform="matrix(0.877993,0,0,0.877993,27.6573,173.639)">
        <rect x="204.972" y="11.6" width="5.45" height="22.986" style="fill:rgb(219,217,216);"/>
    </g>
    <g transform="matrix(0.877993,0,0,0.877993,27.6573,173.639)">
        <path d="M229.271,11.6L226.198,26.674L226.198,26.904L227.768,34.586L221.15,34.586L221.15,11.6L229.271,11.6Z" style="fill:rgb(219,217,216);"/>
    </g>
    <g transform="matrix(0.877993,0,0,0.877993,27.6573,173.639)">
        <path d="M256.087,11.6L256.087,34.586L238.641,34.586L237.041,26.789L239.278,16.119L249.49,16.119C249.834,16.119 250.006,15.947 250.006,15.602L250.006,11.6L256.087,11.6Z" style="fill:rgb(219,217,216);"/>
    </g>
    <g transform="matrix(0.877993,0,0,0.877993,27.6573,173.639)">
        <path d="M291.436,11.6L291.436,34.586L266.815,34.586L266.815,31.149L275.42,32.928L275.535,32.928C275.611,32.928 275.726,32.889 275.879,32.813C275.994,32.698 276.051,32.564 276.051,32.411L276.051,22.773C276.051,22.506 275.917,22.334 275.65,22.257L266.815,20.479L266.815,16.176L282.419,16.176C282.763,16.176 282.935,16.004 282.935,15.66L282.935,11.6L291.436,11.6Z" style="fill:rgb(219,217,216);"/>
    </g>
    <g transform="matrix(0.877993,0,0,0.877993,27.6573,173.639)">
        <path d="M108.479,16.176L101.594,16.176L101.594,22.429L107.331,22.429L108.479,16.176Z" style="fill:rgb(219,217,216);"/>
    </g>
    <g transform="matrix(0.877993,0,0,0.877993,27.6573,173.639)">
        <rect x="-11.474" y="8.098" width="1.129" height="3.502" style="fill:rgb(219,217,216);"/>
    </g>
    <g transform="matrix(0.877993,0,0,0.877993,27.6573,173.639)">
        <rect x="-10.344" y="8.098" width="14.126" height="3.502" style="fill:rgb(219,217,216);"/>
    </g>
    <g transform="matrix(0.877993,0,0,0.877993,27.6573,173.639)">
        <rect x="14.452" y="8.098" width="8.605" height="3.502" style="fill:rgb(219,217,216);"/>
    </g>
    <g transform="matrix(0.877993,0,0,0.877993,27.6573,173.639)">
        <rect x="49.906" y="8.098" width="6.884" height="3.502" style="fill:rgb(219,217,216);"/>
    </g>
    <g transform="matrix(0.877993,0,0,0.877993,27.6573,173.639)">
        <rect x="83.696" y="8.098" width="7.114" height="3.502" style="fill:rgb(219,217,216);"/>
    </g>
    <g transform="matrix(0.877993,0,0,0.877993,27.6573,173.639)">
        <path d="M128.73,11.6L119.261,11.6L119.875,8.098L128.73,8.098L128.73,11.6Z" style="fill:rgb(219,217,216);"/>
    </g>
    <g transform="matrix(0.877993,0,0,0.877993,27.6573,173.639)">
        <rect x="155.521" y="8.098" width="7.171" height="3.502" style="fill:rgb(219,217,216);"/>
    </g>
    <g transform="matrix(0.877993,0,0,0.877993,27.6573,173.639)">
        <path d="M194.244,11.6L186.058,11.6L185.418,8.098L194.244,8.098L194.244,11.6Z" style="fill:rgb(219,217,216);"/>
    </g>
    <g transform="matrix(0.877993,0,0,0.877993,27.6573,173.639)">
        <rect x="204.972" y="8.098" width="5.45" height="3.502" style="fill:rgb(219,217,216);"/>
    </g>
    <g transform="matrix(0.877993,0,0,0.877993,27.6573,173.639)">
        <path d="M229.271,11.6L221.15,11.6L221.15,8.098L229.985,8.098L229.271,11.6Z" style="fill:rgb(219,217,216);"/>
    </g>
    <g transform="matrix(0.877993,0,0,0.877993,27.6573,173.639)">
        <rect x="250.006" y="8.098" width="6.081" height="3.502" style="fill:rgb(219,217,216);"/>
    </g>
    <g transform="matrix(0.877993,0,0,0.877993,27.6573,173.639)">
        <rect x="282.935" y="8.098" width="8.501" height="3.502" style="fill:rgb(219,217,216);"/>
    </g>
    <g transform="matrix(0.877993,0,0,0.877993,27.6573,173.639)">
        <path d="M33.785,8.431L33.785,8.098L35.514,8.098L33.785,8.431Z" style="fill:rgb(219,217,216);"/>
    </g>
    <g transform="matrix(0.877993,0,0,0.877993,32.8614,196.895)">
        <rect x="-19.807" y="13.114" width="3.535" height="24.451" style="fill:rgb(219,217,216);"/>
    </g>
    <g transform="matrix(0.877993,0,0,0.877993,33.8614,196.895)">
        <path d="M285.509,13.114L285.509,37.565L274.866,37.565L274.866,33.993C274.866,33.649 274.672,33.476 274.285,33.476L245.214,33.412C244.826,33.412 244.633,33.606 244.633,33.993L244.633,37.565L223.25,37.565L223.25,33.993C223.25,33.649 223.056,33.476 222.668,33.476L211.751,33.476C211.363,33.476 211.169,33.649 211.169,33.993L211.169,37.565L202.125,37.565L202.125,33.993C202.125,33.649 201.931,33.476 201.544,33.476L172.473,33.476C172.085,33.476 171.892,33.649 171.892,33.993L171.892,37.565L163.106,37.565L163.106,33.993C163.106,33.606 162.912,33.412 162.524,33.412L133.389,33.412C133.002,33.412 132.808,33.606 132.808,33.993L132.808,37.565L124.128,37.565L125.056,34.187C125.099,34.015 125.077,33.842 124.991,33.67C124.862,33.541 124.711,33.476 124.539,33.476L113.88,33.476C113.578,33.476 113.406,33.606 113.363,33.864L112.237,37.565L107.77,37.565L106.644,33.864C106.558,33.606 106.386,33.476 106.128,33.476L95.468,33.476C95.296,33.476 95.145,33.541 95.016,33.67C94.887,33.799 94.865,33.972 94.952,34.187L95.879,37.565L88.75,37.565L88.75,34.058C88.75,33.842 88.685,33.692 88.556,33.606C88.384,33.433 88.233,33.39 88.104,33.476L68.077,37.353L67.367,33.929C67.367,33.756 67.281,33.627 67.108,33.541C66.936,33.455 66.807,33.433 66.721,33.476L52.379,36.513L52.379,34.058C52.379,33.67 52.185,33.476 51.798,33.476L40.88,33.476C40.493,33.476 40.299,33.67 40.299,34.058L40.299,37.565L-16.272,37.565L-16.272,13.114L-2.146,13.114L-2.146,21.413C-2.146,21.757 -1.993,21.929 -1.687,21.929L8.009,21.929C8.353,21.929 8.525,21.757 8.525,21.413L8.525,13.114L17.13,13.114L17.13,21.413C17.13,21.757 17.302,21.929 17.646,21.929L27.342,21.929C27.686,21.929 27.858,21.757 27.858,21.413L27.858,13.114L33.251,13.114L33.251,21.413C33.251,21.757 33.423,21.929 33.767,21.929L43.462,21.929C43.806,21.929 43.978,21.757 43.978,21.413L43.978,13.114L59.009,13.114L59.009,21.413C59.009,21.719 59.162,21.872 59.468,21.872L69.163,21.872C69.507,21.872 69.679,21.719 69.679,21.413L69.679,13.114L84.882,13.114L84.882,21.413C84.882,21.757 85.054,21.929 85.398,21.929L95.151,21.929C95.495,21.929 95.667,21.757 95.667,21.413L95.667,13.114L102.095,13.114L103.584,21.528C103.661,21.796 103.833,21.929 104.1,21.929L113.853,21.929C114.006,21.929 114.14,21.872 114.255,21.757C114.331,21.604 114.369,21.47 114.369,21.356L112.898,13.114L122.802,13.114L122.802,21.413C122.802,21.757 122.974,21.929 123.319,21.929L149.077,21.929C149.421,21.929 149.593,21.757 149.593,21.413L149.593,13.114L156.764,13.114L156.764,21.413C156.764,21.757 156.936,21.929 157.281,21.929L182.523,21.872C182.867,21.872 183.039,21.7 183.039,21.356L183.039,13.114L188.317,13.114L188.317,21.413C188.317,21.757 188.489,21.929 188.833,21.929L214.706,21.929C215.05,21.929 215.223,21.757 215.223,21.413L215.223,13.114L222.866,13.114L224.574,21.47C224.65,21.738 224.803,21.872 225.033,21.872L243.562,21.872C243.907,21.872 244.079,21.7 244.079,21.356L244.079,13.114L250.16,13.114L250.16,21.356C250.16,21.7 250.332,21.872 250.676,21.872L276.492,21.872C276.836,21.872 277.008,21.7 277.008,21.356L277.008,13.114L285.509,13.114Z" style="fill:rgb(219,217,216);"/>
    </g>
    <g transform="matrix(0.877993,0,0,0.877993,32.8614,196.895)">
        <rect x="-19.807" y="8.098" width="3.535" height="5.016" style="fill:rgb(219,217,216);"/>
    </g>
    <g transform="matrix(0.877993,0,0,0.877993,32.8614,196.895)">
        <rect x="-16.272" y="8.098" width="14.126" height="5.016" style="fill:rgb(219,217,216);"/>
    </g>
    <g transform="matrix(0.877993,0,0,0.877993,32.8614,196.895)">
        <rect x="8.525" y="8.098" width="8.605" height="5.016" style="fill:rgb(219,217,216);"/>
    </g>
    <g transform="matrix(0.877993,0,0,0.877993,32.8614,196.895)">
        <rect x="27.858" y="8.098" width="5.393" height="5.016" style="fill:rgb(219,217,216);"/>
    </g>
    <g transform="matrix(0.877993,0,0,0.877993,32.8614,196.895)">
        <rect x="43.978" y="8.098" width="15.03" height="5.016" style="fill:rgb(219,217,216);"/>
    </g>
    <g transform="matrix(0.877993,0,0,0.877993,32.8614,196.895)">
        <rect x="69.679" y="8.098" width="15.203" height="5.016" style="fill:rgb(219,217,216);"/>
    </g>
    <g transform="matrix(0.877993,0,0,0.877993,32.8614,196.895)">
        <path d="M102.095,13.114L95.667,13.114L95.667,8.098L101.208,8.098L102.095,13.114Z" style="fill:rgb(219,217,216);"/>
    </g>
    <g transform="matrix(0.877993,0,0,0.877993,32.8614,196.895)">
        <path d="M122.802,13.114L112.898,13.114L112.002,8.098L122.802,8.098L122.802,13.114Z" style="fill:rgb(219,217,216);"/>
    </g>
    <g transform="matrix(0.877993,0,0,0.877993,32.8614,196.895)">
        <rect x="149.593" y="8.098" width="7.171" height="5.016" style="fill:rgb(219,217,216);"/>
    </g>
    <g transform="matrix(0.877993,0,0,0.877993,32.8614,196.895)">
        <rect x="183.039" y="8.098" width="5.278" height="5.016" style="fill:rgb(219,217,216);"/>
    </g>
    <g transform="matrix(0.877993,0,0,0.877993,32.8614,196.895)">
        <path d="M222.866,13.114L215.223,13.114L215.223,8.098L221.841,8.098L222.866,13.114Z" style="fill:rgb(219,217,216);"/>
    </g>
    <g transform="matrix(0.877993,0,0,0.877993,32.8614,196.895)">
        <path d="M250.16,13.114L244.079,13.114L244.079,11.718C244.079,11.374 243.907,11.202 243.562,11.202L233.351,11.202L232.714,8.098L250.16,8.098L250.16,13.114Z" style="fill:rgb(219,217,216);"/>
    </g>
    <g transform="matrix(0.877993,0,0,0.877993,32.8614,196.895)">
        <path d="M285.509,13.114L277.008,13.114L277.008,11.603C277.008,11.297 276.836,11.144 276.492,11.144L260.888,11.144L260.888,8.098L285.509,8.098L285.509,13.114Z" style="fill:rgb(219,217,216);"/>
    </g>
    <g transform="matrix(0.877993,0,0,0.877993,32.8614,196.895)">
        <rect x="133.473" y="8.098" width="5.393" height="3.161" style="fill:rgb(219,217,216);"/>
    </g>
    <g transform="matrix(0.877993,0,0,0.877993,32.8614,196.895)">
        <rect x="199.045" y="8.098" width="5.45" height="3.103" style="fill:rgb(219,217,216);"/>
    </g>
    <g transform="matrix(0.877993,0,0,0.877993,32.8614,196.895)">
        <rect x="167.435" y="8.098" width="5.622" height="3.103" style="fill:rgb(219,217,216);"/>
    </g>
    <g transform="matrix(0.877993,0,0,0.877993,26.1163,222.766)">
        <rect x="293.191" y="10.135" width="22.915" height="25.524" style="fill:rgb(219,217,216);"/>
    </g>
    <g transform="matrix(0.877993,0,0,0.877993,26.1163,222.766)">
        <path d="M47.981,10.135L18.159,10.135L18.159,39.602L20.885,39.602L20.885,35.658L47.981,35.658L47.981,10.135Z" style="fill:rgb(219,217,216);"/>
    </g>
    <g transform="matrix(0.877993,0,0,0.877993,26.1163,222.766)">
        <path d="M66.199,35.658L60.062,35.658L60.062,18.738L66.199,17.576L66.199,35.658Z" style="fill:rgb(219,217,216);"/>
    </g>
    <g transform="matrix(0.877993,0,0,0.877993,26.1163,222.766)">
        <path d="M84.352,35.658L78.279,35.658L78.279,19.384L84.352,18.157L84.352,35.658Z" style="fill:rgb(219,217,216);"/>
    </g>
    <g transform="matrix(0.877993,0,0,0.877993,26.1163,222.766)">
        <path d="M104.12,10.135L111.127,35.658L96.432,35.658L96.432,10.135L104.12,10.135Z" style="fill:rgb(219,217,216);"/>
    </g>
    <g transform="matrix(0.877993,0,0,0.877993,26.1163,222.766)">
        <path d="M140.49,10.135L140.49,30.69C140.49,30.862 140.512,30.991 140.555,31.077C140.641,31.25 140.77,31.336 140.942,31.336L158.643,34.824L158.643,35.658L124.245,35.658L131.252,10.135L140.49,10.135Z" style="fill:rgb(219,217,216);"/>
    </g>
    <g transform="matrix(0.877993,0,0,0.877993,26.1163,222.766)">
        <path d="M179.574,10.135L179.574,35.658L170.788,35.658L170.788,25.651C170.788,25.349 170.594,25.155 170.207,25.069L170.078,25.069C169.991,25.026 169.948,25.005 169.948,25.005L152.635,21.581L152.635,16.09L170.207,16.09C170.594,16.09 170.788,15.896 170.788,15.508L170.788,10.135L179.574,10.135Z" style="fill:rgb(219,217,216);"/>
    </g>
    <g transform="matrix(0.877993,0,0,0.877993,26.1163,222.766)">
        <path d="M218.852,10.135L218.852,35.658L191.654,35.658L191.654,32.951L201.345,34.953L201.474,34.953C201.56,34.953 201.689,34.91 201.861,34.824C201.991,34.695 202.055,34.544 202.055,34.372L202.055,23.519C202.055,23.217 201.904,23.024 201.603,22.938L191.654,20.935L191.654,16.09L209.226,16.09C209.614,16.09 209.807,15.896 209.807,15.508L209.807,10.135L218.852,10.135Z" style="fill:rgb(219,217,216);"/>
    </g>
    <g transform="matrix(0.877993,0,0,0.877993,26.1163,222.766)">
        <rect x="230.932" y="10.135" width="21.383" height="25.524" style="fill:rgb(219,217,216);"/>
    </g>
    <g transform="matrix(0.877993,0,0,0.877993,26.1163,222.766)">
        <path d="M293.191,10.135L293.191,35.658L264.331,35.658L264.331,33.015L274.086,35.018L274.215,35.018C274.344,35.018 274.452,34.975 274.538,34.889C274.71,34.716 274.796,34.566 274.796,34.437L274.796,23.584C274.796,23.282 274.624,23.088 274.279,23.002L264.331,20.935L264.331,15.831L281.967,15.831C282.355,15.831 282.548,15.638 282.548,15.25L282.548,10.135L293.191,10.135Z" style="fill:rgb(219,217,216);"/>
    </g>
    <g transform="matrix(0.877993,0,0,0.877993,26.1163,222.766)">
        <path d="M117.686,15.444L116.071,10.135L119.3,10.135L117.686,15.444Z" style="fill:rgb(219,217,216);"/>
    </g>
    <g transform="matrix(0.877993,0,0,0.877993,26.1163,222.766)">
        <rect x="293.191" y="8.098" width="32.956" height="2.036" style="fill:rgb(219,217,216);"/>
    </g>
    <g transform="matrix(0.877993,0,0,0.877993,26.1163,222.766)">
        <rect x="-12.125" y="8.098" width="3.535" height="2.036" style="fill:rgb(219,217,216);"/>
    </g>
    <g transform="matrix(0.877993,0,0,0.877993,26.1163,222.766)">
        <rect x="-8.589" y="8.098" width="56.571" height="2.036" style="fill:rgb(219,217,216);"/>
    </g>
    <g transform="matrix(0.877993,0,0,0.877993,26.1163,222.766)">
        <path d="M104.12,10.135L96.432,10.135L96.432,8.098L103.561,8.098L104.12,10.135Z" style="fill:rgb(219,217,216);"/>
    </g>
    <g transform="matrix(0.877993,0,0,0.877993,26.1163,222.766)">
        <path d="M119.3,10.135L116.071,10.135L115.452,8.098L119.92,8.098L119.3,10.135Z" style="fill:rgb(219,217,216);"/>
    </g>
    <g transform="matrix(0.877993,0,0,0.877993,26.1163,222.766)">
        <path d="M140.49,10.135L131.252,10.135L131.811,8.098L140.49,8.098L140.49,10.135Z" style="fill:rgb(219,217,216);"/>
    </g>
    <g transform="matrix(0.877993,0,0,0.877993,26.1163,222.766)">
        <rect x="170.788" y="8.098" width="8.786" height="2.036" style="fill:rgb(219,217,216);"/>
    </g>
    <g transform="matrix(0.877993,0,0,0.877993,26.1163,222.766)">
        <rect x="209.807" y="8.098" width="9.044" height="2.036" style="fill:rgb(219,217,216);"/>
    </g>
    <g transform="matrix(0.877993,0,0,0.877993,26.1163,222.766)">
        <rect x="230.932" y="8.098" width="21.383" height="2.036" style="fill:rgb(219,217,216);"/>
    </g>
    <g transform="matrix(0.877993,0,0,0.877993,26.1163,222.766)">
        <rect x="282.548" y="8.098" width="10.643" height="2.036" style="fill:rgb(219,217,216);"/>
    </g>
    <g transform="matrix(0.877993,0,0,0.877993,38.3588,246.964)">
        <path d="M34.037,12.042L34.037,24.255C34.037,24.642 34.231,24.836 34.619,24.836L45.536,24.836C45.924,24.836 46.118,24.642 46.118,24.255L46.118,12.042L52.255,12.042L52.255,24.255C52.255,24.642 52.449,24.836 52.836,24.836L63.754,24.836C64.142,24.836 64.335,24.642 64.335,24.255L64.335,12.042L70.408,12.042L70.408,24.255C70.408,24.642 70.602,24.836 70.989,24.836L81.907,24.836C82.295,24.836 82.488,24.642 82.488,24.255L82.488,12.042L97.734,12.042L97.734,24.255C97.734,24.642 97.928,24.836 98.316,24.836L109.169,24.836C109.556,24.836 109.75,24.642 109.75,24.255L109.75,12.042L144.699,12.042L144.699,12.756L127.128,12.756C126.74,12.756 126.546,12.949 126.546,13.337L126.546,24.255C126.546,24.642 126.74,24.836 127.128,24.836L156.263,24.836C156.651,24.836 156.844,24.642 156.844,24.255L156.844,12.042L165.63,12.042L165.63,24.19C165.63,24.578 165.824,24.771 166.212,24.771L195.282,24.771C195.67,24.771 195.864,24.578 195.864,24.19L195.864,13.208C195.864,12.863 195.67,12.691 195.282,12.691L177.711,12.691L177.711,12.042L204.908,12.042L204.908,24.255C204.908,24.599 205.102,24.771 205.489,24.771L228.487,24.771C228.832,24.771 229.004,24.599 229.004,24.255L229.004,13.337C229.004,12.949 228.832,12.756 228.487,12.756L216.988,12.756L216.988,12.042L238.371,12.042L238.371,24.255C238.371,24.599 238.565,24.771 238.953,24.771L249.806,24.771C250.193,24.771 250.387,24.599 250.387,24.255L250.387,12.042L258.397,12.042L258.397,39.602L17.243,39.602L17.243,12.042L34.037,12.042Z" style="fill:rgb(219,217,216);"/>
    </g>
    <g transform="matrix(0.877993,0,0,0.877993,38.3588,246.964)">
        <rect x="-19.807" y="8.098" width="53.844" height="3.944" style="fill:rgb(219,217,216);"/>
    </g>
    <g transform="matrix(0.877993,0,0,0.877993,38.3588,246.964)">
        <rect x="46.118" y="8.098" width="6.137" height="3.944" style="fill:rgb(219,217,216);"/>
    </g>
    <g transform="matrix(0.877993,0,0,0.877993,38.3588,246.964)">
        <rect x="64.335" y="8.098" width="6.073" height="3.944" style="fill:rgb(219,217,216);"/>
    </g>
    <g transform="matrix(0.877993,0,0,0.877993,38.3588,246.964)">
        <path d="M82.488,12.042L82.488,8.098L97.183,8.098L97.734,10.107L97.734,12.042L82.488,12.042Z" style="fill:rgb(219,217,216);"/>
    </g>
    <g transform="matrix(0.877993,0,0,0.877993,38.3588,246.964)">
        <path d="M144.699,12.042L109.75,12.042L109.75,10.107L110.302,8.098L144.699,8.098L144.699,12.042Z" style="fill:rgb(219,217,216);"/>
    </g>
    <g transform="matrix(0.877993,0,0,0.877993,38.3588,246.964)">
        <rect x="156.844" y="8.098" width="8.786" height="3.944" style="fill:rgb(219,217,216);"/>
    </g>
    <g transform="matrix(0.877993,0,0,0.877993,38.3588,246.964)">
        <rect x="177.711" y="8.098" width="27.197" height="3.944" style="fill:rgb(219,217,216);"/>
    </g>
    <g transform="matrix(0.877993,0,0,0.877993,38.3588,246.964)">
        <rect x="216.988" y="8.098" width="21.383" height="3.944" style="fill:rgb(219,217,216);"/>
    </g>
    <g transform="matrix(0.877993,0,0,0.877993,38.3588,246.964)">
        <rect x="250.387" y="8.098" width="28.86" height="3.944" style="fill:rgb(219,217,216);"/>
    </g>
</svg>
