<?xml version="1.0" encoding="UTF-8" standalone="no"?>
<!DOCTYPE svg PUBLIC "-//W3C//DTD SVG 1.1//EN" "http://www.w3.org/Graphics/SVG/1.1/DTD/svg11.dtd">
<svg width="100%" height="100%" viewBox="0 0 67 25" version="1.1" xmlns="http://www.w3.org/2000/svg" xmlns:xlink="http://www.w3.org/1999/xlink" xml:space="preserve" xmlns:serif="http://www.serif.com/" style="fill-rule:evenodd;clip-rule:evenodd;stroke-linejoin:round;stroke-miterlimit:1.41421;">
    <g transform="matrix(1.77283,0,0,1.77283,-20.7024,-17.7744)">
        <path d="M15.173,10.052C15.285,10.052 15.342,10.108 15.342,10.221L15.342,23.927C15.342,24.039 15.285,24.096 15.173,24.096L12.004,24.096C11.904,24.096 11.854,24.039 11.854,23.927L11.854,10.221C11.854,10.108 11.904,10.052 12.004,10.052L15.173,10.052Z" style="fill:rgb(237,50,96);fill-rule:nonzero;"/>
        <path d="M26.929,23.927C26.929,24.039 26.873,24.096 26.76,24.096L23.591,24.096C23.479,24.096 23.423,24.039 23.423,23.927L23.423,14.158L21.66,14.515L21.66,23.927C21.66,24.039 21.604,24.096 21.491,24.096L18.323,24.096C18.21,24.096 18.154,24.039 18.154,23.927L18.154,10.221C18.154,10.108 18.21,10.052 18.323,10.052L21.491,10.052C21.604,10.052 21.66,10.108 21.66,10.221L21.66,11.027L26.723,10.052C26.773,10.052 26.823,10.065 26.873,10.09C26.91,10.127 26.929,10.171 26.929,10.221L26.929,23.927Z" style="fill:rgb(237,50,96);fill-rule:nonzero;"/>
        <path d="M37.803,10.052C37.916,10.052 37.972,10.102 37.972,10.202L37.972,13.315C37.972,13.427 37.916,13.483 37.803,13.483L32.685,13.483L32.685,14.965L35.572,15.565C35.672,15.59 35.722,15.646 35.722,15.733L35.722,18.883C35.722,18.921 35.697,18.964 35.647,19.014C35.622,19.039 35.591,19.052 35.554,19.052L35.516,19.052L32.685,18.471L32.685,23.927C32.685,24.027 32.629,24.077 32.516,24.077L29.366,24.077C29.254,24.077 29.197,24.027 29.197,23.927L29.197,10.202C29.197,10.09 29.254,10.033 29.366,10.033L37.803,10.052Z" style="fill:rgb(237,50,96);fill-rule:nonzero;"/>
        <path d="M49.091,10.052C49.203,10.052 49.259,10.108 49.259,10.221L49.259,23.927C49.259,24.039 49.203,24.096 49.091,24.096L40.785,24.096L40.672,24.096C40.56,24.096 40.503,24.039 40.503,23.927L40.503,23.852L40.503,10.221C40.503,10.108 40.56,10.052 40.672,10.052L49.091,10.052ZM45.753,13.577L43.991,13.577L43.991,20.608L45.753,20.608L45.753,13.577Z" style="fill:rgb(237,50,96);fill-rule:nonzero;"/>
    </g>
</svg>
