<?xml version="1.0" encoding="UTF-8" standalone="no"?>
<!DOCTYPE svg PUBLIC "-//W3C//DTD SVG 1.1//EN" "http://www.w3.org/Graphics/SVG/1.1/DTD/svg11.dtd">
<svg width="100%" height="100%" viewBox="0 0 670 195" version="1.1" xmlns="http://www.w3.org/2000/svg" xmlns:xlink="http://www.w3.org/1999/xlink" xml:space="preserve" xmlns:serif="http://www.serif.com/" style="fill-rule:evenodd;clip-rule:evenodd;stroke-linecap:round;stroke-linejoin:round;stroke-miterlimit:1.5;">
    <g transform="matrix(0.937514,0,0,0.937514,7.24818,-29.5989)">
        <g transform="matrix(0.641279,0,0,0.27656,-731.643,-223.262)">
            <path d="M2098.19,1157.45L2098.19,1228.15C2098.19,1230.15 2098.61,1231.16 2099.47,1231.16L2123.43,1231.16C2124.36,1230.95 2124.71,1229.96 2124.71,1228.15L2124.71,1157.45L2138.04,1157.45L2138.04,1228.15C2138.04,1230.15 2138.47,1231.16 2139.32,1231.16L2163.29,1231.16C2164.19,1231.02 2164.57,1230.02 2164.57,1228.15L2164.57,1157.45L2225.9,1157.45L2225.9,1260.78L1432.16,1260.78L1432.16,1157.45L1553.7,1157.45L1553.7,1168.97L1515.12,1168.97C1514.25,1169.04 1513.85,1170.04 1513.85,1171.97L1513.85,1228.16C1513.85,1230.16 1514.27,1231.16 1515.12,1231.16L1578.95,1231.16C1579.88,1230.95 1580.22,1229.96 1580.22,1228.15L1580.22,1157.45L1601.64,1157.45L1601.64,1228.15C1601.64,1230.15 1602.07,1231.16 1602.92,1231.16L1626.89,1231.16C1627.82,1230.95 1628.16,1229.96 1628.16,1228.15L1628.16,1157.45L1635.79,1157.45L1641.07,1228.48C1641.26,1230.27 1641.68,1231.16 1642.35,1231.16L1666.46,1231.16C1666.97,1231.01 1667.22,1230.69 1667.45,1230.15C1667.64,1229.71 1667.73,1228.82 1667.73,1227.48L1662.43,1157.45L1684.33,1157.45L1684.33,1227.81C1684.33,1229.82 1684.75,1230.82 1685.6,1230.82L1749.43,1230.82C1750.36,1230.62 1750.7,1229.63 1750.7,1227.83L1750.7,1171.3C1750.7,1169.7 1750.36,1168.82 1749.43,1168.64L1710.85,1168.64L1710.85,1157.45L1770.56,1157.45L1770.56,1228.15C1770.56,1229.93 1770.99,1230.82 1771.84,1230.82L1822.33,1230.82C1823.17,1230.58 1823.46,1229.7 1823.46,1228.15L1823.46,1171.65C1823.46,1169.9 1823.17,1168.91 1822.33,1168.64L1797.08,1168.64L1797.08,1157.45L1843.89,1157.45L1843.89,1227.81C1843.89,1229.82 1844.31,1230.82 1845.16,1230.82L1908.99,1230.82C1909.92,1230.62 1910.26,1229.63 1910.26,1227.83L1910.26,1171.3C1910.26,1169.7 1909.92,1168.82 1908.99,1168.64L1870.41,1168.64L1870.41,1157.45L1944.87,1157.45L1944.87,1228.14C1944.87,1229.93 1945.25,1230.82 1946.01,1230.82L1970.11,1230.82C1971.04,1230.64 1971.39,1229.76 1971.39,1228.14L1971.39,1157.45L2011.39,1157.45L2011.39,1228.15C2011.39,1230.15 2011.81,1231.16 2012.66,1231.16L2076.35,1231.16C2077.28,1230.95 2077.62,1229.96 2077.62,1228.15L2077.62,1157.45L2098.19,1157.45Z" style="fill:rgb(217,217,217);"/>
        </g>
        <g transform="matrix(0.641279,0,0,0.272058,-735.986,-245.857)">
            <rect x="2166.91" y="1157.45" width="58.99" height="103.328" style="fill:rgb(217,217,217);"/>
        </g>
        <g transform="matrix(0.641279,0,0,0.272058,-735.986,-245.857)">
            <path d="M2140.39,1260.78L2124.71,1260.78L2124.71,1163.65L2137.72,1157.45L2140.39,1157.45L2140.39,1260.78Z" style="fill:rgb(217,217,217);"/>
        </g>
        <g transform="matrix(0.641279,0,0,0.272058,-735.986,-245.857)">
            <path d="M1432.16,1157.45L1513.85,1157.45L1513.85,1222.4C1513.85,1223.3 1513.89,1223.97 1513.99,1224.41C1514.18,1225.3 1514.46,1225.75 1514.84,1225.75L1553.7,1243.83L1553.7,1260.78L1432.16,1260.78L1432.16,1157.45Z" style="fill:rgb(217,217,217);"/>
        </g>
        <g transform="matrix(0.641279,0,0,0.272058,-735.986,-245.857)">
            <path d="M1601.64,1260.78L1580.22,1260.78L1580.22,1196.08C1580.22,1194.62 1579.85,1193.65 1578.95,1193.07L1578.66,1193.07L1578.38,1192.74L1540.37,1175.02L1540.37,1157.45L1601.64,1157.45L1601.64,1260.78Z" style="fill:rgb(217,217,217);"/>
        </g>
        <g transform="matrix(0.641279,0,0,0.272058,-735.986,-245.857)">
            <path d="M1684.33,1260.78L1662.43,1260.78L1658.51,1209.12L1662.43,1157.45L1684.33,1157.45L1684.33,1260.78Z" style="fill:rgb(217,217,217);"/>
        </g>
        <g transform="matrix(0.641279,0,0,0.272058,-735.986,-245.857)">
            <path d="M1770.56,1260.78L1710.85,1260.78L1710.85,1233.99L1732.12,1244.41L1732.41,1244.41L1733.26,1243.73C1733.54,1243.06 1733.68,1242.28 1733.68,1241.38L1733.68,1184.91C1733.68,1183.35 1733.35,1182.34 1732.69,1181.89L1710.85,1171.48L1710.85,1157.45L1770.56,1157.45L1770.56,1260.78Z" style="fill:rgb(217,217,217);"/>
        </g>
        <g transform="matrix(0.641279,0,0,0.272058,-735.986,-245.857)">
            <rect x="1797.08" y="1157.45" width="46.804" height="103.328" style="fill:rgb(217,217,217);"/>
        </g>
        <g transform="matrix(0.641279,0,0,0.272058,-735.986,-245.857)">
            <path d="M1944.87,1260.78L1870.41,1260.78L1870.41,1233.99L1891.68,1244.41L1891.97,1244.41L1892.82,1243.73C1893.1,1243.06 1893.24,1242.28 1893.24,1241.38L1893.24,1184.91C1893.24,1183.35 1892.91,1182.34 1892.25,1181.89L1870.41,1171.48L1870.41,1157.45L1944.87,1157.45L1944.87,1260.78Z" style="fill:rgb(217,217,217);"/>
        </g>
        <g transform="matrix(0.641279,0,0,0.272058,-733.765,-246.024)">
            <rect x="2037.91" y="1157.45" width="13.19" height="103.328" style="fill:rgb(217,217,217);"/>
        </g>
        <g transform="matrix(0.641279,0,0,0.272058,-735.986,-245.857)">
            <rect x="1971.39" y="1157.45" width="39.996" height="103.328" style="fill:rgb(217,217,217);"/>
        </g>
        <g transform="matrix(0.641279,0,0,0.272058,-735.986,-245.857)">
            <rect x="2077.62" y="1157.45" width="20.565" height="103.328" style="fill:rgb(217,217,217);"/>
        </g>
        <g transform="matrix(0.641279,0,0,0.272058,-732.807,-273.258)">
            <path d="M1432.16,1157.45L2225.9,1157.45L2225.9,1260.78L2164.57,1260.78L2164.57,1190.42C2164.57,1189.53 2164.42,1188.75 2164.14,1188.08C2163.76,1187.63 2163.38,1187.41 2163.01,1187.41L2124.71,1204.8L2124.71,1190.42C2124.71,1188.41 2124.29,1187.41 2123.43,1187.41L2099.47,1187.41C2098.61,1187.41 2098.19,1188.41 2098.19,1190.42L2098.19,1260.78L2077.62,1260.78L2077.62,1190.42C2077.62,1188.48 2077.23,1187.48 2076.35,1187.41L2012.66,1187.41C2011.79,1187.48 2011.39,1188.48 2011.39,1190.42L2011.39,1260.78L1971.39,1260.78L1971.39,1249.59L1990.11,1249.59C1990.99,1249.53 1991.39,1248.53 1991.39,1246.6L1991.39,1190.4C1991.39,1188.41 1990.97,1187.41 1990.11,1187.41L1926.01,1187.41C1925.16,1187.41 1924.73,1188.41 1924.73,1190.4L1924.73,1246.6C1924.73,1248.6 1925.16,1249.59 1926.01,1249.59L1944.87,1249.59L1944.87,1260.78L1870.41,1260.78L1870.41,1249.59L1908.99,1249.59C1909.87,1249.53 1910.26,1248.53 1910.26,1246.6L1910.26,1190.07C1910.26,1188.36 1909.87,1187.47 1908.99,1187.41L1845.16,1187.41C1844.28,1187.47 1843.89,1188.36 1843.89,1190.09L1843.89,1260.78L1797.08,1260.78L1797.08,1190.09C1797.08,1188.3 1796.66,1187.41 1795.81,1187.41L1771.84,1187.41C1770.99,1187.41 1770.56,1188.3 1770.56,1190.09L1770.56,1260.78L1710.85,1260.78L1710.85,1249.59L1749.43,1249.59C1750.31,1249.53 1750.7,1248.53 1750.7,1246.6L1750.7,1190.07C1750.7,1188.36 1750.31,1187.47 1749.43,1187.41L1685.6,1187.41C1684.73,1187.47 1684.33,1188.36 1684.33,1190.09L1684.33,1260.78L1662.43,1260.78L1667.73,1190.75C1667.73,1189.64 1667.64,1188.86 1667.45,1188.41C1667.17,1187.75 1666.84,1187.41 1666.46,1187.41L1642.49,1187.41C1641.83,1187.41 1641.4,1188.19 1641.21,1189.75L1635.85,1260.78L1628.16,1260.78L1628.16,1190.42C1628.16,1188.41 1627.74,1187.41 1626.89,1187.41L1602.92,1187.41C1602.07,1187.41 1601.64,1188.41 1601.64,1190.42L1601.64,1260.78L1540.37,1260.78L1540.37,1249.93L1578.95,1249.93C1579.83,1249.86 1580.22,1248.86 1580.22,1246.92L1580.22,1190.09C1580.22,1188.15 1579.83,1187.14 1578.95,1187.08L1515.12,1187.08C1514.24,1187.14 1513.85,1188.15 1513.85,1190.09L1513.85,1260.78L1432.16,1260.78L1432.16,1157.45Z" style="fill:rgb(217,217,217);"/>
        </g>
        <g transform="matrix(0.641279,0,0,0.272058,-732.396,-246.024)">
            <path d="M1635.79,1260.78L1628.16,1260.78L1628.16,1245.22L1634.4,1242.21L1635.79,1260.78Z" style="fill:rgb(217,217,217);"/>
        </g>
        <g transform="matrix(0.641279,0,0,0.272058,-735.103,-273.8)">
            <rect x="2037.91" y="1250.26" width="13.19" height="10.519" style="fill:rgb(217,217,217);"/>
        </g>
        <g transform="matrix(0.506902,0,0,0.506902,-402.921,-496.384)">
            <path d="M1835.77,1282.99L1816.29,1282.99L1835.77,1282.99Z" style="fill:rgb(217,217,217);"/>
        </g>
        <g transform="matrix(0.506902,0,0,0.506902,-402.921,-496.384)">
            <path d="M1884.31,1282.99L1864.83,1282.99L1884.31,1282.99Z" style="fill:rgb(217,217,217);"/>
        </g>
        <g transform="matrix(0.506902,0,0,0.506902,-402.921,-496.384)">
            <path d="M1962.33,1282.99L1942.85,1282.99L1962.33,1282.99Z" style="fill:rgb(217,217,217);"/>
        </g>
        <g transform="matrix(0.506902,0,0,0.506902,-402.921,-496.384)">
            <path d="M1933.17,1282.99L1913.69,1282.99L1933.17,1282.99Z" style="fill:rgb(217,217,217);"/>
        </g>
        <g transform="matrix(0.506902,0,0,0.506902,-402.921,-496.384)">
            <path d="M2026.69,1282.99L2007.09,1282.99L2026.69,1282.99Z" style="fill:rgb(217,217,217);"/>
        </g>
        <g transform="matrix(0.506902,0,0,0.506902,-402.921,-496.384)">
            <path d="M1997.23,1282.99L1977.75,1282.99L1997.23,1282.99Z" style="fill:rgb(217,217,217);"/>
        </g>
        <g transform="matrix(0.506902,0,0,0.506902,-402.921,-496.384)">
            <path d="M2076.98,1282.99L2056.13,1282.99L2076.98,1282.99Z" style="fill:rgb(217,217,217);"/>
        </g>
        <g transform="matrix(0.587135,0,0,0.472682,-352.248,-362.399)">
            <path d="M1481.79,1091.05L1481.79,1098.68L1457.33,1098.68C1456.79,1098.68 1456.52,1099.03 1456.52,1099.72L1456.52,1119.19C1456.52,1119.88 1456.79,1120.22 1457.33,1120.22L1497.8,1120.22C1498.37,1120.18 1498.61,1119.83 1498.61,1119.18L1498.61,1091.05L1523.7,1091.05L1523.7,1119.18C1523.7,1119.8 1523.94,1120.11 1524.42,1120.11L1539.7,1120.11C1540.27,1120.07 1540.51,1119.76 1540.51,1119.18L1540.51,1091.05L1565.88,1091.05L1565.88,1119.18C1565.88,1119.88 1566.14,1120.22 1566.68,1120.22L1607.06,1120.22C1607.63,1120.18 1607.87,1119.83 1607.87,1119.18L1607.87,1091.05L1621.18,1091.05L1621.18,1119.18C1621.18,1119.88 1621.45,1120.22 1621.99,1120.22L1637.2,1120.22C1637.76,1120.18 1638,1119.83 1638,1119.18L1638,1091.05L1646.51,1091.05L1650.41,1119.41C1650.53,1119.95 1650.8,1120.22 1651.22,1120.22L1666.51,1120.22C1666.79,1120.2 1666.98,1120.08 1667.14,1119.88C1667.26,1119.57 1667.32,1119.3 1667.32,1119.07L1663.43,1091.05L1688.85,1091.05L1689.44,1093.82L1689.44,1119.18C1689.44,1119.88 1689.71,1120.22 1690.26,1120.22L1705.45,1120.22C1706.02,1120.18 1706.26,1119.83 1706.26,1119.18L1706.26,1093.82L1706.85,1091.05L1761.88,1091.05L1761.88,1130.03L1428.95,1130.03L1428.95,1091.05L1481.79,1091.05Z" style="fill:rgb(217,217,217);"/>
        </g>
        <g transform="matrix(0.587135,0,0,0.456004,-352.248,-343.552)">
            <rect x="1582.69" y="1091.05" width="8.364" height="7.639" style="fill:rgb(217,217,217);"/>
        </g>
        <g transform="matrix(0.506902,0,0,0.506902,-398.424,-497.574)">
            <g transform="matrix(1.15828,0,0,0.899589,88.3608,268.784)">
                <path d="M1456.52,1101.65L1456.52,1120.38C1456.52,1120.69 1456.55,1120.92 1456.61,1121.08C1456.73,1121.39 1456.91,1121.54 1457.15,1121.54L1481.79,1127.8L1481.79,1130.03L1425.57,1130.03L1425.57,1101.65L1456.52,1101.65Z" style="fill:rgb(217,217,217);"/>
            </g>
            <g transform="matrix(1.15828,0,0,0.899589,88.3608,268.784)">
                <path d="M1473.34,1101.65L1523.7,1101.65L1523.7,1130.03L1498.61,1130.03L1498.61,1111.26C1498.61,1110.75 1498.36,1110.41 1497.8,1110.22L1497.62,1110.22L1497.44,1110.11L1473.34,1103.97L1473.34,1101.65Z" style="fill:rgb(217,217,217);"/>
            </g>
            <g transform="matrix(1.15828,0,0,0.899589,88.3608,268.784)">
                <rect x="1540.51" y="1101.65" width="25.361" height="28.376" style="fill:rgb(217,217,217);"/>
            </g>
            <g transform="matrix(1.15828,0,0,0.899589,88.3608,268.784)">
                <rect x="1582.69" y="1101.65" width="8.364" height="28.376" style="fill:rgb(217,217,217);"/>
            </g>
            <g transform="matrix(1.15828,0,0,0.899589,88.3608,268.784)">
                <rect x="1607.87" y="1101.65" width="13.31" height="28.376" style="fill:rgb(217,217,217);"/>
            </g>
            <g transform="matrix(1.15828,0,0,0.899589,88.3608,268.784)">
                <path d="M1663.41,1101.65L1682.8,1101.65L1688.85,1130.03L1663.43,1130.03L1661.47,1115.89L1663.41,1101.65Z" style="fill:rgb(217,217,217);"/>
            </g>
            <g transform="matrix(1.15828,0,0,0.899589,88.3608,268.784)">
                <path d="M1761.88,1130.03L1706.85,1130.03L1712.9,1101.65L1761.88,1101.65L1761.88,1091.05L1761.88,1130.03Z" style="fill:rgb(217,217,217);"/>
            </g>
            <g transform="matrix(1.15828,0,0,0.899589,88.3608,268.784)">
                <path d="M1638,1101.65L1647.72,1101.65L1646.99,1106.75L1638,1106.75L1638,1101.65Z" style="fill:rgb(217,217,217);"/>
            </g>
        </g>
        <g transform="matrix(0.587135,0,0,0.456004,-352.248,-361.327)">
            <path d="M1646.51,1130.03L1638,1130.03L1638,1128.29L1646.27,1128.29L1646.51,1130.03Z" style="fill:rgb(217,217,217);"/>
        </g>
        <g transform="matrix(0.506902,0,0,0.52776,-397.038,-523.119)">
            <g>
                <g transform="matrix(1.15828,0,0,0.935142,88.3608,204.467)">
                    <path d="M1428.95,1091.05L1761.88,1091.05L1761.88,1119.42L1715.16,1119.42L1718.85,1102.12C1718.91,1101.81 1718.88,1101.51 1718.76,1101.2C1718.6,1100.99 1718.41,1100.88 1718.13,1100.85L1703.28,1100.85C1702.83,1100.88 1702.61,1101.11 1702.55,1101.54L1698.31,1119.42L1697.39,1119.42L1693.15,1101.54C1693.04,1101.12 1692.82,1100.89 1692.42,1100.85L1677.57,1100.85C1677.29,1100.88 1677.1,1100.99 1676.94,1101.2C1676.76,1101.43 1676.73,1101.74 1676.85,1102.12L1680.54,1119.42L1664.86,1119.42L1667.23,1102.01C1667.23,1101.62 1667.17,1101.35 1667.05,1101.2C1666.87,1100.96 1666.66,1100.85 1666.42,1100.85L1621.99,1100.85C1621.45,1100.85 1621.18,1101.16 1621.18,1101.78L1621.18,1119.42L1607.87,1119.42L1607.87,1101.89C1607.87,1101.24 1607.63,1100.89 1607.06,1100.85L1566.68,1100.85C1566.11,1100.89 1565.88,1101.24 1565.88,1101.89L1565.88,1119.42L1553.19,1119.42L1553.19,1101.89C1553.19,1101.19 1552.92,1100.85 1552.38,1100.85L1511.74,1100.85C1511.2,1100.85 1510.93,1101.19 1510.93,1101.89L1510.93,1119.42L1498.61,1119.42L1498.61,1101.78C1498.61,1101.12 1498.37,1100.78 1497.8,1100.73L1457.33,1100.73C1456.76,1100.78 1456.52,1101.12 1456.52,1101.78L1456.52,1119.42L1428.95,1119.42L1428.95,1130.03L1428.95,1091.05Z" style="fill:rgb(217,217,217);"/>
                </g>
                <g transform="matrix(1.15828,0,0,0.899589,88.3608,243.257)">
                    <rect x="1431.99" y="1119.42" width="24.523" height="10.603" style="fill:rgb(217,217,217);"/>
                </g>
                <g transform="matrix(1.15828,0,0,0.899589,88.3608,243.257)">
                    <path d="M1510.93,1119.42L1510.93,1121.35C1510.93,1122 1511.16,1122.34 1511.74,1122.39L1523.7,1122.39L1523.7,1130.03L1473.34,1130.03L1473.34,1122.5L1497.8,1122.5C1498.39,1122.43 1498.61,1122.09 1498.61,1121.46L1498.61,1119.42L1510.93,1119.42Z" style="fill:rgb(217,217,217);"/>
                </g>
                <g transform="matrix(1.15828,0,0,0.899589,88.3608,243.257)">
                    <path d="M1553.19,1119.42L1565.88,1119.42L1565.88,1130.03L1540.51,1130.03L1540.51,1122.39L1552.38,1122.39C1552.98,1122.31 1553.19,1121.97 1553.19,1121.35L1553.19,1119.42Z" style="fill:rgb(217,217,217);"/>
                </g>
                <g transform="matrix(1.15828,0,0,0.899589,88.3608,243.257)">
                    <rect x="1582.69" y="1122.62" width="8.364" height="7.407" style="fill:rgb(217,217,217);"/>
                </g>
                <g transform="matrix(1.15828,0,0,0.899589,88.3608,243.257)">
                    <path d="M1638,1122.5L1648.79,1122.5L1647.72,1130.03L1638,1130.03L1638,1122.5Z" style="fill:rgb(217,217,217);"/>
                </g>
                <g transform="matrix(1.15828,0,0,0.899589,88.3608,243.257)">
                    <path d="M1761.88,1130.03L1712.9,1130.03L1715.16,1119.42L1761.88,1119.42L1761.88,1130.03Z" style="fill:rgb(217,217,217);"/>
                </g>
            </g>
            <g transform="matrix(1.15828,0,0,0.899589,88.3608,243.257)">
                <path d="M1697.85,1121.34L1697.39,1119.42L1698.31,1119.42L1697.85,1121.34Z" style="fill:rgb(217,217,217);"/>
            </g>
        </g>
        <g transform="matrix(0.587135,0,0,0.524982,-352.248,-451.482)">
            <rect x="1607.87" y="1119.42" width="13.31" height="10.603" style="fill:rgb(217,217,217);"/>
        </g>
        <g transform="matrix(0.587135,0,0,0.59396,-352.248,-529.429)">
            <path d="M1664.86,1119.42L1680.54,1119.42L1682.8,1130.03L1663.41,1130.03L1664.86,1119.42Z" style="fill:rgb(217,217,217);"/>
        </g>
    </g>
    <g transform="matrix(0.291091,0,0,0.291091,90.4502,-17.6498)">
        <g transform="matrix(1.46667,0,0,1.46667,-920.94,-3946.59)">
            <circle cx="857.635" cy="3022.19" r="4.697" style="fill:rgb(234,43,85);"/>
        </g>
        <g transform="matrix(1,0,0,1,-515.074,-2522.14)">
            <g transform="matrix(1,0,0,1,0,63.7972)">
                <path d="M844.052,2898.94L891.019,2898.94" style="fill:none;stroke:rgb(234,43,85);stroke-width:10.42px;"/>
            </g>
            <g transform="matrix(1,0,0,1,0,85.3239)">
                <path d="M844.052,2898.94L891.019,2898.94" style="fill:none;stroke:rgb(234,43,85);stroke-width:10.42px;"/>
            </g>
        </g>
        <path d="M352.461,510.87L427.809,510.87L452.722,485.957L546.01,485.957" style="fill:none;stroke:rgb(234,230,221);stroke-width:6.25px;stroke-miterlimit:1;"/>
        <path d="M558.535,485.957L761.016,485.957L785.929,510.87" style="fill:none;stroke:rgb(234,230,221);stroke-width:7.29px;stroke-miterlimit:1;"/>
        <path d="M558.535,459.989L1022.73,459.989" style="fill:none;stroke:rgb(234,230,221);stroke-width:10.42px;stroke-miterlimit:1;"/>
        <path d="M558.535,613.676L756.841,613.676L785.929,584.588L921.749,584.588L1007.92,498.414" style="fill:none;stroke:rgb(234,230,221);stroke-width:7.29px;stroke-miterlimit:1;"/>
        <g transform="matrix(1,0,0,1,-335.033,43.8361)">
            <g transform="matrix(-1,0,0,1,2210.51,0)">
                <path d="M593.053,478.465L1714.01,478.465" style="fill:none;"/>
            </g>
            <g transform="matrix(0.569185,0,0,1,222.421,-2582.7)">
                <path d="M727.599,2990.96L744.951,2990.96L744.951,3139.17L727.599,3139.17C718.023,3139.17 710.248,3131.4 710.248,3121.82L710.248,3008.32C710.248,2998.74 718.022,2990.96 727.599,2990.96Z" style="fill:rgb(188,215,221);stroke:rgb(188,215,221);stroke-width:5.12px;"/>
            </g>
            <g transform="matrix(1,0,0,1,356.951,-2467.35)">
                <path d="M1071.43,2961.85L1098.7,3004.16L1114.81,3095.41" style="fill:none;stroke:rgb(234,230,221);stroke-width:6.42px;"/>
            </g>
            <g transform="matrix(1.46667,0,0,1.46667,135.406,-3907.54)">
                <circle cx="857.635" cy="3022.19" r="4.697" style="fill:rgb(234,43,85);"/>
            </g>
            <g transform="matrix(1,0,0,1,218.137,-2467.35)">
                <path d="M1184.89,2964.49L1212.81,3010.19L1228.47,3093.89L1265,3093.89L1297.25,3126.14L1338.06,3126.14L1338.06,2917.36" style="fill:none;stroke:rgb(234,230,221);stroke-width:12.5px;"/>
            </g>
            <g transform="matrix(1,0,0,1,356.951,-2467.35)">
                <path d="M1011.36,2983.64L1020.98,3017.67L1077.96,3037.71" style="fill:none;stroke:rgb(188,215,221);stroke-width:12.5px;"/>
            </g>
            <g transform="matrix(-1,0,0,1,1854.26,80.8057)">
                <path d="M561.087,507.894L581.149,527.955L945.593,527.955L963.765,509.783L963.765,454.713L795.298,454.713L709.793,369.208L559.985,369.208" style="fill:none;stroke:rgb(234,230,221);stroke-width:16.67px;"/>
            </g>
            <g transform="matrix(-1.01904,0,0,1,1864.93,80.8057)">
                <path d="M559.985,308.911L585.665,283.231L619.953,283.231L636.158,299.436L689.465,299.436L705.785,283.115L934.947,283.115L956.22,304.388L956.22,454.713" style="fill:none;stroke:rgb(234,230,221);stroke-width:16.51px;"/>
            </g>
            <g transform="matrix(-0.978117,0,0,1,1833.17,80.8057)">
                <path d="M963.765,305.778L986.427,283.115L1189.04,283.115L1213.29,307.363L1213.29,390.319" style="fill:none;stroke:rgb(234,230,221);stroke-width:16.85px;"/>
            </g>
            <g transform="matrix(-1,0,0,1,2207.79,1.44283)">
                <path d="M916.237,588.821L817.084,489.668L747.676,489.668L707.728,449.72L656.873,449.72L648.033,440.879L648.033,431.745" style="fill:none;stroke:rgb(234,230,221);stroke-width:16.67px;stroke-linejoin:miter;stroke-miterlimit:1;"/>
            </g>
            <g transform="matrix(-1,0,0,1,1854.26,80.8057)">
                <path d="M963.765,506.954L984.765,527.955L1153.34,527.955C1167.79,527.955 1181.65,522.214 1191.87,511.997C1202.09,501.779 1207.83,487.92 1207.83,473.47L1207.83,390.319L1167.9,390.319L1103.51,454.713L963.765,454.713" style="fill:none;stroke:rgb(234,230,221);stroke-width:16.67px;"/>
            </g>
            <g transform="matrix(-1,0,0,1,2210.51,0)">
                <path d="M916.237,450.014L801.95,450.014L783.681,431.745L646.436,431.745" style="fill:none;stroke:rgb(234,230,221);stroke-width:16.67px;stroke-linejoin:miter;stroke-miterlimit:1;"/>
            </g>
            <g transform="matrix(-1,0,0,1,2210.51,0)">
                <path d="M916.237,389.21L657.656,389.21L646.436,400.43L646.436,431.745" style="fill:none;stroke:rgb(234,230,221);stroke-width:16.67px;stroke-linejoin:miter;stroke-miterlimit:1;"/>
            </g>
            <g transform="matrix(-1,0,0,1,1854.26,80.8057)">
                <path d="M561.087,507.894L581.149,527.955L945.593,527.955L963.765,509.783L963.765,454.713L795.298,454.713L709.793,369.208L559.985,369.208" style="fill:none;stroke:rgb(88,155,170);stroke-width:8.33px;"/>
            </g>
            <g transform="matrix(-1.01904,0,0,1,1864.93,80.8057)">
                <path d="M559.985,308.911L585.665,283.231L619.953,283.231L636.158,299.436L689.465,299.436L705.785,283.115L934.947,283.115L956.22,304.388L956.22,454.713" style="fill:none;stroke:rgb(88,155,170);stroke-width:8.33px;"/>
            </g>
            <g transform="matrix(-0.978117,0,0,1,1833.17,80.8057)">
                <path d="M963.765,305.778L986.427,283.115L1189.04,283.115L1213.29,307.363L1213.29,390.319" style="fill:none;stroke:rgb(88,155,170);stroke-width:8.33px;"/>
            </g>
            <g transform="matrix(-1,0,0,1,1854.26,80.8057)">
                <path d="M963.765,506.954L984.765,527.955L1152.97,527.955C1183.27,527.955 1207.83,503.395 1207.83,473.099L1207.83,390.319L1167.9,390.319L1103.51,454.713L963.765,454.713" style="fill:none;stroke:rgb(88,155,170);stroke-width:8.33px;"/>
            </g>
            <g transform="matrix(-1,0,0,1,2210.51,0)">
                <path d="M916.237,450.014L801.95,450.014L783.681,431.745L646.436,431.745" style="fill:none;stroke:rgb(88,155,170);stroke-width:8.33px;stroke-linejoin:miter;stroke-miterlimit:1;"/>
            </g>
            <g transform="matrix(-1,0,0,1,2210.51,0)">
                <path d="M916.237,389.21L657.656,389.21L646.436,400.43L646.436,431.745" style="fill:none;stroke:rgb(88,155,170);stroke-width:8.33px;stroke-linejoin:miter;stroke-miterlimit:1;"/>
            </g>
            <g transform="matrix(-1,0,0,1,2207.79,1.44283)">
                <path d="M916.237,588.821L817.084,489.668L747.676,489.668L707.728,449.72L656.873,449.72L648.033,440.879L648.033,431.745" style="fill:none;stroke:rgb(88,155,170);stroke-width:8.33px;stroke-linejoin:miter;stroke-miterlimit:1;"/>
            </g>
        </g>
    </g>
    <g transform="matrix(0.63858,0,0,0.573445,-131.154,106.398)">
        <path d="M265.85,47.6L456.127,47.6" style="fill:none;stroke:rgb(234,43,85);stroke-width:1.65px;"/>
    </g>
    <g id="Polygon_2" transform="matrix(-1,-7.65714e-16,7.65714e-16,-1,29.5726,144.27)">
        <path d="M8.66,3C9.017,2.382 9.678,2 10.392,2C11.106,2 11.767,2.382 12.124,3L19.052,15C19.228,15.304 19.32,15.649 19.32,16C19.32,17.097 18.417,18 17.32,18L3.464,18C2.367,18 1.464,17.097 1.464,16C1.464,15.649 1.556,15.304 1.732,15L8.66,3Z" style="fill:rgb(232,44,85);fill-rule:nonzero;"/>
    </g>
</svg>
