<?xml version="1.0" encoding="UTF-8" standalone="no"?>
<!DOCTYPE svg PUBLIC "-//W3C//DTD SVG 1.1//EN" "http://www.w3.org/Graphics/SVG/1.1/DTD/svg11.dtd">
<svg width="100%" height="100%" viewBox="0 0 350 45" version="1.1" xmlns="http://www.w3.org/2000/svg" xmlns:xlink="http://www.w3.org/1999/xlink" xml:space="preserve" xmlns:serif="http://www.serif.com/" style="fill-rule:evenodd;clip-rule:evenodd;stroke-linejoin:round;stroke-miterlimit:2;">
    <g transform="matrix(0.200436,0,0,0.200436,-260.538,-210.539)">
        <g transform="matrix(266.725,0,0,266.725,1295.13,1263.94)">
            <path d="M0.228,-0.376L0.267,-0.186L0.445,-0.186C0.451,-0.186 0.454,-0.183 0.454,-0.177L0.454,-0.009C0.454,-0.003 0.451,-0 0.445,-0L0.122,-0C0.118,-0 0.115,-0.002 0.114,-0.007L0.039,-0.374L0.039,-0.378L0.113,-0.741C0.114,-0.746 0.117,-0.748 0.122,-0.748L0.445,-0.748C0.451,-0.748 0.454,-0.745 0.454,-0.739L0.454,-0.571C0.454,-0.565 0.451,-0.562 0.445,-0.562L0.267,-0.562L0.228,-0.376Z" style="fill:rgb(219,217,216);fill-rule:nonzero;"/>
        </g>
        <g transform="matrix(266.725,0,0,266.725,1430.09,1263.94)">
            <path d="M0.539,-0.748C0.545,-0.748 0.548,-0.745 0.548,-0.739L0.548,-0.008C0.548,-0.002 0.545,0.001 0.539,0.001L0.09,0.001C0.084,0.001 0.081,-0.002 0.081,-0.008L0.081,-0.739C0.081,-0.745 0.084,-0.748 0.09,-0.748L0.539,-0.748ZM0.361,-0.56L0.267,-0.56L0.267,-0.185L0.361,-0.185L0.361,-0.56Z" style="fill:rgb(219,217,216);fill-rule:nonzero;"/>
        </g>
        <g transform="matrix(266.725,0,0,266.725,1598.93,1263.94)">
            <path d="M0.8,-0.008C0.8,-0.002 0.797,0.001 0.791,0.001L0.622,0.001C0.616,0.001 0.613,-0.002 0.613,-0.008L0.613,-0.529L0.519,-0.51L0.519,-0.008C0.519,-0.002 0.516,0.001 0.51,0.001L0.341,0.001C0.335,0.001 0.332,-0.002 0.332,-0.008L0.332,-0.538L0.237,-0.52L0.237,-0.008C0.237,-0.002 0.234,0.001 0.228,0.001L0.059,0.001C0.053,0.001 0.05,-0.002 0.05,-0.008L0.05,-0.739C0.05,-0.745 0.053,-0.748 0.059,-0.748L0.228,-0.748C0.234,-0.748 0.237,-0.745 0.237,-0.739L0.237,-0.701L0.459,-0.748C0.46,-0.749 0.462,-0.748 0.465,-0.747C0.468,-0.746 0.469,-0.744 0.469,-0.741L0.48,-0.688L0.79,-0.748C0.792,-0.749 0.794,-0.749 0.797,-0.746C0.799,-0.745 0.8,-0.742 0.8,-0.739L0.8,-0.008Z" style="fill:rgb(219,217,216);fill-rule:nonzero;"/>
        </g>
        <g transform="matrix(266.725,0,0,266.725,1827.51,1263.94)">
            <path d="M0.261,-0.748C0.267,-0.748 0.27,-0.745 0.27,-0.739L0.27,-0.008C0.27,-0.002 0.267,0.001 0.261,0.001L0.092,0.001C0.087,0.001 0.084,-0.002 0.084,-0.008L0.084,-0.739C0.084,-0.745 0.087,-0.748 0.092,-0.748L0.261,-0.748Z" style="fill:rgb(219,217,216);fill-rule:nonzero;"/>
        </g>
        <g transform="matrix(266.725,0,0,266.725,1923.54,1263.94)">
            <path d="M0.528,-0.008C0.528,-0.002 0.525,0.001 0.519,0.001L0.35,0.001C0.344,0.001 0.341,-0.002 0.341,-0.008L0.341,-0.529L0.247,-0.51L0.247,-0.008C0.247,-0.002 0.244,0.001 0.238,0.001L0.069,0.001C0.063,0.001 0.06,-0.002 0.06,-0.008L0.06,-0.739C0.06,-0.745 0.063,-0.748 0.069,-0.748L0.238,-0.748C0.244,-0.748 0.247,-0.745 0.247,-0.739L0.247,-0.696L0.517,-0.748C0.52,-0.748 0.522,-0.747 0.525,-0.746C0.527,-0.744 0.528,-0.742 0.528,-0.739L0.528,-0.008Z" style="fill:rgb(219,217,216);fill-rule:nonzero;"/>
        </g>
        <g transform="matrix(266.725,0,0,266.725,2081.97,1263.94)">
            <path d="M0.072,-0.008L0.072,-0.739C0.072,-0.745 0.075,-0.748 0.081,-0.748L0.531,-0.748C0.537,-0.748 0.54,-0.745 0.54,-0.739L0.54,-0.523C0.54,-0.517 0.537,-0.514 0.531,-0.514L0.362,-0.514C0.356,-0.514 0.353,-0.517 0.353,-0.523L0.353,-0.561L0.259,-0.561L0.259,-0.186L0.353,-0.186L0.353,-0.248L0.317,-0.24L0.315,-0.24C0.314,-0.24 0.312,-0.241 0.309,-0.242C0.307,-0.244 0.306,-0.246 0.306,-0.249L0.306,-0.416C0.306,-0.421 0.308,-0.424 0.313,-0.425L0.529,-0.467C0.532,-0.468 0.534,-0.467 0.536,-0.465C0.539,-0.464 0.54,-0.461 0.54,-0.458L0.54,-0.008C0.54,-0.002 0.537,0.001 0.531,0.001L0.081,0.001C0.075,0.001 0.072,-0.002 0.072,-0.008Z" style="fill:rgb(219,217,216);fill-rule:nonzero;"/>
        </g>
        <g transform="matrix(266.725,0,0,266.725,2380.97,1263.94)">
            <path d="M0.255,-0.561L0.255,-0.476L0.523,-0.423C0.523,-0.423 0.524,-0.423 0.525,-0.422L0.527,-0.422C0.533,-0.421 0.536,-0.418 0.536,-0.413L0.536,-0.008C0.536,-0.002 0.533,0.001 0.527,0.001L0.076,0.001C0.07,0.001 0.067,-0.002 0.067,-0.008L0.067,-0.177C0.067,-0.183 0.07,-0.186 0.076,-0.186L0.348,-0.186L0.348,-0.271L0.074,-0.325C0.071,-0.325 0.069,-0.326 0.068,-0.329C0.067,-0.33 0.067,-0.332 0.067,-0.335L0.067,-0.74C0.067,-0.746 0.07,-0.749 0.076,-0.749L0.527,-0.749C0.533,-0.749 0.536,-0.746 0.536,-0.74L0.536,-0.57C0.536,-0.564 0.533,-0.561 0.527,-0.561L0.255,-0.561Z" style="fill:rgb(219,217,216);fill-rule:nonzero;"/>
        </g>
        <g transform="matrix(266.725,0,0,266.725,2545.81,1263.94)">
            <path d="M0.539,-0.748C0.545,-0.748 0.548,-0.745 0.548,-0.739L0.548,-0.008C0.548,-0.002 0.545,0.001 0.539,0.001L0.09,0.001C0.084,0.001 0.081,-0.002 0.081,-0.008L0.081,-0.739C0.081,-0.745 0.084,-0.748 0.09,-0.748L0.539,-0.748ZM0.361,-0.56L0.267,-0.56L0.267,-0.185L0.361,-0.185L0.361,-0.56Z" style="fill:rgb(219,217,216);fill-rule:nonzero;"/>
        </g>
        <g transform="matrix(266.725,0,0,266.725,2714.64,1263.94)">
            <path d="M0.539,-0.748C0.545,-0.748 0.548,-0.745 0.548,-0.739L0.548,-0.008C0.548,-0.002 0.545,0.001 0.539,0.001L0.09,0.001C0.084,0.001 0.081,-0.002 0.081,-0.008L0.081,-0.739C0.081,-0.745 0.084,-0.748 0.09,-0.748L0.539,-0.748ZM0.361,-0.56L0.267,-0.56L0.267,-0.185L0.361,-0.185L0.361,-0.56Z" style="fill:rgb(219,217,216);fill-rule:nonzero;"/>
        </g>
        <g transform="matrix(266.725,0,0,266.725,2883.48,1263.94)">
            <path d="M0.528,-0.008C0.528,-0.002 0.525,0.001 0.519,0.001L0.35,0.001C0.344,0.001 0.341,-0.002 0.341,-0.008L0.341,-0.529L0.247,-0.51L0.247,-0.008C0.247,-0.002 0.244,0.001 0.238,0.001L0.069,0.001C0.063,0.001 0.06,-0.002 0.06,-0.008L0.06,-0.739C0.06,-0.745 0.063,-0.748 0.069,-0.748L0.238,-0.748C0.244,-0.748 0.247,-0.745 0.247,-0.739L0.247,-0.696L0.517,-0.748C0.52,-0.748 0.522,-0.747 0.525,-0.746C0.527,-0.744 0.528,-0.742 0.528,-0.739L0.528,-0.008Z" style="fill:rgb(219,217,216);fill-rule:nonzero;"/>
        </g>
    </g>
</svg>
