<?xml version="1.0" encoding="UTF-8" standalone="no"?>
<!DOCTYPE svg PUBLIC "-//W3C//DTD SVG 1.1//EN" "http://www.w3.org/Graphics/SVG/1.1/DTD/svg11.dtd">
<svg width="100%" height="100%" viewBox="0 0 470 270" version="1.1" xmlns="http://www.w3.org/2000/svg" xmlns:xlink="http://www.w3.org/1999/xlink" xml:space="preserve" xmlns:serif="http://www.serif.com/" style="fill-rule:evenodd;clip-rule:evenodd;stroke-linecap:round;stroke-linejoin:round;stroke-miterlimit:1.5;">
    <g transform="matrix(0.496324,0,0,0.214046,-669.9,-176.386)">
        <path d="M2098.19,1157.45L2098.19,1228.15C2098.19,1230.15 2098.61,1231.16 2099.47,1231.16L2123.43,1231.16C2124.36,1230.95 2124.71,1229.96 2124.71,1228.15L2124.71,1157.45L2138.04,1157.45L2138.04,1228.15C2138.04,1230.15 2138.47,1231.16 2139.32,1231.16L2163.29,1231.16C2164.19,1231.02 2164.57,1230.02 2164.57,1228.15L2164.57,1157.45L2225.9,1157.45L2225.9,1260.78L1432.16,1260.78L1432.16,1157.45L1553.7,1157.45L1553.7,1168.97L1515.12,1168.97C1514.25,1169.04 1513.85,1170.04 1513.85,1171.97L1513.85,1228.16C1513.85,1230.16 1514.27,1231.16 1515.12,1231.16L1578.95,1231.16C1579.88,1230.95 1580.22,1229.96 1580.22,1228.15L1580.22,1157.45L1601.64,1157.45L1601.64,1228.15C1601.64,1230.15 1602.07,1231.16 1602.92,1231.16L1626.89,1231.16C1627.82,1230.95 1628.16,1229.96 1628.16,1228.15L1628.16,1157.45L1635.79,1157.45L1641.07,1228.48C1641.26,1230.27 1641.68,1231.16 1642.35,1231.16L1666.46,1231.16C1666.97,1231.01 1667.22,1230.69 1667.45,1230.15C1667.64,1229.71 1667.73,1228.82 1667.73,1227.48L1662.43,1157.45L1684.33,1157.45L1684.33,1227.81C1684.33,1229.82 1684.75,1230.82 1685.6,1230.82L1749.43,1230.82C1750.36,1230.62 1750.7,1229.63 1750.7,1227.83L1750.7,1171.3C1750.7,1169.7 1750.36,1168.82 1749.43,1168.64L1710.85,1168.64L1710.85,1157.45L1770.56,1157.45L1770.56,1228.15C1770.56,1229.93 1770.99,1230.82 1771.84,1230.82L1822.33,1230.82C1823.17,1230.58 1823.46,1229.7 1823.46,1228.15L1823.46,1171.65C1823.46,1169.9 1823.17,1168.91 1822.33,1168.64L1797.08,1168.64L1797.08,1157.45L1843.89,1157.45L1843.89,1227.81C1843.89,1229.82 1844.31,1230.82 1845.16,1230.82L1908.99,1230.82C1909.92,1230.62 1910.26,1229.63 1910.26,1227.83L1910.26,1171.3C1910.26,1169.7 1909.92,1168.82 1908.99,1168.64L1870.41,1168.64L1870.41,1157.45L1944.87,1157.45L1944.87,1228.14C1944.87,1229.93 1945.25,1230.82 1946.01,1230.82L1970.11,1230.82C1971.04,1230.64 1971.39,1229.76 1971.39,1228.14L1971.39,1157.45L2011.39,1157.45L2011.39,1228.15C2011.39,1230.15 2011.81,1231.16 2012.66,1231.16L2076.35,1231.16C2077.28,1230.95 2077.62,1229.96 2077.62,1228.15L2077.62,1157.45L2098.19,1157.45Z" style="fill:rgb(217,217,217);"/>
    </g>
    <g transform="matrix(0.496324,0,0,0.210562,-673.261,-193.874)">
        <rect x="2166.91" y="1157.45" width="58.99" height="103.328" style="fill:rgb(217,217,217);"/>
    </g>
    <g transform="matrix(0.496324,0,0,0.210562,-673.261,-193.874)">
        <path d="M2140.39,1260.78L2124.71,1260.78L2124.71,1163.65L2137.72,1157.45L2140.39,1157.45L2140.39,1260.78Z" style="fill:rgb(217,217,217);"/>
    </g>
    <g transform="matrix(0.496324,0,0,0.210562,-673.261,-193.874)">
        <path d="M1432.16,1157.45L1513.85,1157.45L1513.85,1222.4C1513.85,1223.3 1513.89,1223.97 1513.99,1224.41C1514.18,1225.3 1514.46,1225.75 1514.84,1225.75L1553.7,1243.83L1553.7,1260.78L1432.16,1260.78L1432.16,1157.45Z" style="fill:rgb(217,217,217);"/>
    </g>
    <g transform="matrix(0.496324,0,0,0.210562,-673.261,-193.874)">
        <path d="M1601.64,1260.78L1580.22,1260.78L1580.22,1196.08C1580.22,1194.62 1579.85,1193.65 1578.95,1193.07L1578.66,1193.07L1578.38,1192.74L1540.37,1175.02L1540.37,1157.45L1601.64,1157.45L1601.64,1260.78Z" style="fill:rgb(217,217,217);"/>
    </g>
    <g transform="matrix(0.496324,0,0,0.210562,-673.261,-193.874)">
        <path d="M1684.33,1260.78L1662.43,1260.78L1658.51,1209.12L1662.43,1157.45L1684.33,1157.45L1684.33,1260.78Z" style="fill:rgb(217,217,217);"/>
    </g>
    <g transform="matrix(0.496324,0,0,0.210562,-673.261,-193.874)">
        <path d="M1770.56,1260.78L1710.85,1260.78L1710.85,1233.99L1732.12,1244.41L1732.41,1244.41L1733.26,1243.73C1733.54,1243.06 1733.68,1242.28 1733.68,1241.38L1733.68,1184.91C1733.68,1183.35 1733.35,1182.34 1732.69,1181.89L1710.85,1171.48L1710.85,1157.45L1770.56,1157.45L1770.56,1260.78Z" style="fill:rgb(217,217,217);"/>
    </g>
    <g transform="matrix(0.496324,0,0,0.210562,-673.261,-193.874)">
        <rect x="1797.08" y="1157.45" width="46.804" height="103.328" style="fill:rgb(217,217,217);"/>
    </g>
    <g transform="matrix(0.496324,0,0,0.210562,-673.261,-193.874)">
        <path d="M1944.87,1260.78L1870.41,1260.78L1870.41,1233.99L1891.68,1244.41L1891.97,1244.41L1892.82,1243.73C1893.1,1243.06 1893.24,1242.28 1893.24,1241.38L1893.24,1184.91C1893.24,1183.35 1892.91,1182.34 1892.25,1181.89L1870.41,1171.48L1870.41,1157.45L1944.87,1157.45L1944.87,1260.78Z" style="fill:rgb(217,217,217);"/>
    </g>
    <g transform="matrix(0.496324,0,0,0.210562,-671.542,-194.003)">
        <rect x="2037.91" y="1157.45" width="13.19" height="103.328" style="fill:rgb(217,217,217);"/>
    </g>
    <g transform="matrix(0.496324,0,0,0.210562,-673.261,-193.874)">
        <rect x="1971.39" y="1157.45" width="39.996" height="103.328" style="fill:rgb(217,217,217);"/>
    </g>
    <g transform="matrix(0.496324,0,0,0.210562,-673.261,-193.874)">
        <rect x="2077.62" y="1157.45" width="20.565" height="103.328" style="fill:rgb(217,217,217);"/>
    </g>
    <g transform="matrix(0.496324,0,0,0.210562,-670.801,-215.082)">
        <path d="M1432.16,1157.45L2225.9,1157.45L2225.9,1260.78L2164.57,1260.78L2164.57,1190.42C2164.57,1189.53 2164.42,1188.75 2164.14,1188.08C2163.76,1187.63 2163.38,1187.41 2163.01,1187.41L2124.71,1204.8L2124.71,1190.42C2124.71,1188.41 2124.29,1187.41 2123.43,1187.41L2099.47,1187.41C2098.61,1187.41 2098.19,1188.41 2098.19,1190.42L2098.19,1260.78L2077.62,1260.78L2077.62,1190.42C2077.62,1188.48 2077.23,1187.48 2076.35,1187.41L2012.66,1187.41C2011.79,1187.48 2011.39,1188.48 2011.39,1190.42L2011.39,1260.78L1971.39,1260.78L1971.39,1249.59L1990.11,1249.59C1990.99,1249.53 1991.39,1248.53 1991.39,1246.6L1991.39,1190.4C1991.39,1188.41 1990.97,1187.41 1990.11,1187.41L1926.01,1187.41C1925.16,1187.41 1924.73,1188.41 1924.73,1190.4L1924.73,1246.6C1924.73,1248.6 1925.16,1249.59 1926.01,1249.59L1944.87,1249.59L1944.87,1260.78L1870.41,1260.78L1870.41,1249.59L1908.99,1249.59C1909.87,1249.53 1910.26,1248.53 1910.26,1246.6L1910.26,1190.07C1910.26,1188.36 1909.87,1187.47 1908.99,1187.41L1845.16,1187.41C1844.28,1187.47 1843.89,1188.36 1843.89,1190.09L1843.89,1260.78L1797.08,1260.78L1797.08,1190.09C1797.08,1188.3 1796.66,1187.41 1795.81,1187.41L1771.84,1187.41C1770.99,1187.41 1770.56,1188.3 1770.56,1190.09L1770.56,1260.78L1710.85,1260.78L1710.85,1249.59L1749.43,1249.59C1750.31,1249.53 1750.7,1248.53 1750.7,1246.6L1750.7,1190.07C1750.7,1188.36 1750.31,1187.47 1749.43,1187.41L1685.6,1187.41C1684.73,1187.47 1684.33,1188.36 1684.33,1190.09L1684.33,1260.78L1662.43,1260.78L1667.73,1190.75C1667.73,1189.64 1667.64,1188.86 1667.45,1188.41C1667.17,1187.75 1666.84,1187.41 1666.46,1187.41L1642.49,1187.41C1641.83,1187.41 1641.4,1188.19 1641.21,1189.75L1635.85,1260.78L1628.16,1260.78L1628.16,1190.42C1628.16,1188.41 1627.74,1187.41 1626.89,1187.41L1602.92,1187.41C1602.07,1187.41 1601.64,1188.41 1601.64,1190.42L1601.64,1260.78L1540.37,1260.78L1540.37,1249.93L1578.95,1249.93C1579.83,1249.86 1580.22,1248.86 1580.22,1246.92L1580.22,1190.09C1580.22,1188.15 1579.83,1187.14 1578.95,1187.08L1515.12,1187.08C1514.24,1187.14 1513.85,1188.15 1513.85,1190.09L1513.85,1260.78L1432.16,1260.78L1432.16,1157.45Z" style="fill:rgb(217,217,217);"/>
    </g>
    <g transform="matrix(0.496324,0,0,0.210562,-670.482,-194.003)">
        <path d="M1635.79,1260.78L1628.16,1260.78L1628.16,1245.22L1634.4,1242.21L1635.79,1260.78Z" style="fill:rgb(217,217,217);"/>
    </g>
    <g transform="matrix(0.496324,0,0,0.210562,-672.578,-215.501)">
        <rect x="2037.91" y="1250.26" width="13.19" height="10.519" style="fill:rgb(217,217,217);"/>
    </g>
    <g transform="matrix(0.392322,0,0,0.392322,-415.482,-387.772)">
        <path d="M1835.77,1282.99L1816.29,1282.99L1835.77,1282.99Z" style="fill:rgb(217,217,217);"/>
    </g>
    <g transform="matrix(0.392322,0,0,0.392322,-415.482,-387.772)">
        <path d="M1884.31,1282.99L1864.83,1282.99L1884.31,1282.99Z" style="fill:rgb(217,217,217);"/>
    </g>
    <g transform="matrix(0.392322,0,0,0.392322,-415.482,-387.772)">
        <path d="M1962.33,1282.99L1942.85,1282.99L1962.33,1282.99Z" style="fill:rgb(217,217,217);"/>
    </g>
    <g transform="matrix(0.392322,0,0,0.392322,-415.482,-387.772)">
        <path d="M1933.17,1282.99L1913.69,1282.99L1933.17,1282.99Z" style="fill:rgb(217,217,217);"/>
    </g>
    <g transform="matrix(0.392322,0,0,0.392322,-415.482,-387.772)">
        <path d="M2026.69,1282.99L2007.09,1282.99L2026.69,1282.99Z" style="fill:rgb(217,217,217);"/>
    </g>
    <g transform="matrix(0.392322,0,0,0.392322,-415.482,-387.772)">
        <path d="M1997.23,1282.99L1977.75,1282.99L1997.23,1282.99Z" style="fill:rgb(217,217,217);"/>
    </g>
    <g transform="matrix(0.392322,0,0,0.392322,-415.482,-387.772)">
        <path d="M2076.98,1282.99L2056.13,1282.99L2076.98,1282.99Z" style="fill:rgb(217,217,217);"/>
    </g>
    <g transform="matrix(0.454419,0,0,0.365837,-376.263,-284.073)">
        <path d="M1481.79,1091.05L1481.79,1098.68L1457.33,1098.68C1456.79,1098.68 1456.52,1099.03 1456.52,1099.72L1456.52,1119.19C1456.52,1119.88 1456.79,1120.22 1457.33,1120.22L1497.8,1120.22C1498.37,1120.18 1498.61,1119.83 1498.61,1119.18L1498.61,1091.05L1523.7,1091.05L1523.7,1119.18C1523.7,1119.8 1523.94,1120.11 1524.42,1120.11L1539.7,1120.11C1540.27,1120.07 1540.51,1119.76 1540.51,1119.18L1540.51,1091.05L1565.88,1091.05L1565.88,1119.18C1565.88,1119.88 1566.14,1120.22 1566.68,1120.22L1607.06,1120.22C1607.63,1120.18 1607.87,1119.83 1607.87,1119.18L1607.87,1091.05L1621.18,1091.05L1621.18,1119.18C1621.18,1119.88 1621.45,1120.22 1621.99,1120.22L1637.2,1120.22C1637.76,1120.18 1638,1119.83 1638,1119.18L1638,1091.05L1646.51,1091.05L1650.41,1119.41C1650.53,1119.95 1650.8,1120.22 1651.22,1120.22L1666.51,1120.22C1666.79,1120.2 1666.98,1120.08 1667.14,1119.88C1667.26,1119.57 1667.32,1119.3 1667.32,1119.07L1663.43,1091.05L1688.85,1091.05L1689.44,1093.82L1689.44,1119.18C1689.44,1119.88 1689.71,1120.22 1690.26,1120.22L1705.45,1120.22C1706.02,1120.18 1706.26,1119.83 1706.26,1119.18L1706.26,1093.82L1706.85,1091.05L1761.88,1091.05L1761.88,1130.03L1428.95,1130.03L1428.95,1091.05L1481.79,1091.05Z" style="fill:rgb(217,217,217);"/>
    </g>
    <g transform="matrix(0.454419,0,0,0.352929,-376.263,-269.487)">
        <rect x="1582.69" y="1091.05" width="8.364" height="7.639" style="fill:rgb(217,217,217);"/>
    </g>
    <g transform="matrix(0.392322,0,0,0.392322,-412.001,-388.693)">
        <g transform="matrix(1.15828,0,0,0.899589,88.3608,268.784)">
            <path d="M1456.52,1101.65L1456.52,1120.38C1456.52,1120.69 1456.55,1120.92 1456.61,1121.08C1456.73,1121.39 1456.91,1121.54 1457.15,1121.54L1481.79,1127.8L1481.79,1130.03L1425.57,1130.03L1425.57,1101.65L1456.52,1101.65Z" style="fill:rgb(217,217,217);"/>
        </g>
        <g transform="matrix(1.15828,0,0,0.899589,88.3608,268.784)">
            <path d="M1473.34,1101.65L1523.7,1101.65L1523.7,1130.03L1498.61,1130.03L1498.61,1111.26C1498.61,1110.75 1498.36,1110.41 1497.8,1110.22L1497.62,1110.22L1497.44,1110.11L1473.34,1103.97L1473.34,1101.65Z" style="fill:rgb(217,217,217);"/>
        </g>
        <g transform="matrix(1.15828,0,0,0.899589,88.3608,268.784)">
            <rect x="1540.51" y="1101.65" width="25.361" height="28.376" style="fill:rgb(217,217,217);"/>
        </g>
        <g transform="matrix(1.15828,0,0,0.899589,88.3608,268.784)">
            <rect x="1582.69" y="1101.65" width="8.364" height="28.376" style="fill:rgb(217,217,217);"/>
        </g>
        <g transform="matrix(1.15828,0,0,0.899589,88.3608,268.784)">
            <rect x="1607.87" y="1101.65" width="13.31" height="28.376" style="fill:rgb(217,217,217);"/>
        </g>
        <g transform="matrix(1.15828,0,0,0.899589,88.3608,268.784)">
            <path d="M1663.41,1101.65L1682.8,1101.65L1688.85,1130.03L1663.43,1130.03L1661.47,1115.89L1663.41,1101.65Z" style="fill:rgb(217,217,217);"/>
        </g>
        <g transform="matrix(1.15828,0,0,0.899589,88.3608,268.784)">
            <path d="M1761.88,1130.03L1706.85,1130.03L1712.9,1101.65L1761.88,1101.65L1761.88,1091.05L1761.88,1130.03Z" style="fill:rgb(217,217,217);"/>
        </g>
        <g transform="matrix(1.15828,0,0,0.899589,88.3608,268.784)">
            <path d="M1638,1101.65L1647.72,1101.65L1646.99,1106.75L1638,1106.75L1638,1101.65Z" style="fill:rgb(217,217,217);"/>
        </g>
    </g>
    <g transform="matrix(0.454419,0,0,0.352929,-376.263,-283.243)">
        <path d="M1646.51,1130.03L1638,1130.03L1638,1128.29L1646.27,1128.29L1646.51,1130.03Z" style="fill:rgb(217,217,217);"/>
    </g>
    <g transform="matrix(0.392322,0,0,0.408465,-410.929,-408.464)">
        <g>
            <g transform="matrix(1.15828,0,0,0.935142,88.3608,204.467)">
                <path d="M1428.95,1091.05L1761.88,1091.05L1761.88,1119.42L1715.16,1119.42L1718.85,1102.12C1718.91,1101.81 1718.88,1101.51 1718.76,1101.2C1718.6,1100.99 1718.41,1100.88 1718.13,1100.85L1703.28,1100.85C1702.83,1100.88 1702.61,1101.11 1702.55,1101.54L1698.31,1119.42L1697.39,1119.42L1693.15,1101.54C1693.04,1101.12 1692.82,1100.89 1692.42,1100.85L1677.57,1100.85C1677.29,1100.88 1677.1,1100.99 1676.94,1101.2C1676.76,1101.43 1676.73,1101.74 1676.85,1102.12L1680.54,1119.42L1664.86,1119.42L1667.23,1102.01C1667.23,1101.62 1667.17,1101.35 1667.05,1101.2C1666.87,1100.96 1666.66,1100.85 1666.42,1100.85L1621.99,1100.85C1621.45,1100.85 1621.18,1101.16 1621.18,1101.78L1621.18,1119.42L1607.87,1119.42L1607.87,1101.89C1607.87,1101.24 1607.63,1100.89 1607.06,1100.85L1566.68,1100.85C1566.11,1100.89 1565.88,1101.24 1565.88,1101.89L1565.88,1119.42L1553.19,1119.42L1553.19,1101.89C1553.19,1101.19 1552.92,1100.85 1552.38,1100.85L1511.74,1100.85C1511.2,1100.85 1510.93,1101.19 1510.93,1101.89L1510.93,1119.42L1498.61,1119.42L1498.61,1101.78C1498.61,1101.12 1498.37,1100.78 1497.8,1100.73L1457.33,1100.73C1456.76,1100.78 1456.52,1101.12 1456.52,1101.78L1456.52,1119.42L1428.95,1119.42L1428.95,1130.03L1428.95,1091.05Z" style="fill:rgb(217,217,217);"/>
            </g>
            <g transform="matrix(1.15828,0,0,0.899589,88.3608,243.257)">
                <rect x="1431.99" y="1119.42" width="24.523" height="10.603" style="fill:rgb(217,217,217);"/>
            </g>
            <g transform="matrix(1.15828,0,0,0.899589,88.3608,243.257)">
                <path d="M1510.93,1119.42L1510.93,1121.35C1510.93,1122 1511.16,1122.34 1511.74,1122.39L1523.7,1122.39L1523.7,1130.03L1473.34,1130.03L1473.34,1122.5L1497.8,1122.5C1498.39,1122.43 1498.61,1122.09 1498.61,1121.46L1498.61,1119.42L1510.93,1119.42Z" style="fill:rgb(217,217,217);"/>
            </g>
            <g transform="matrix(1.15828,0,0,0.899589,88.3608,243.257)">
                <path d="M1553.19,1119.42L1565.88,1119.42L1565.88,1130.03L1540.51,1130.03L1540.51,1122.39L1552.38,1122.39C1552.98,1122.31 1553.19,1121.97 1553.19,1121.35L1553.19,1119.42Z" style="fill:rgb(217,217,217);"/>
            </g>
            <g transform="matrix(1.15828,0,0,0.899589,88.3608,243.257)">
                <rect x="1582.69" y="1122.62" width="8.364" height="7.407" style="fill:rgb(217,217,217);"/>
            </g>
            <g transform="matrix(1.15828,0,0,0.899589,88.3608,243.257)">
                <path d="M1638,1122.5L1648.79,1122.5L1647.72,1130.03L1638,1130.03L1638,1122.5Z" style="fill:rgb(217,217,217);"/>
            </g>
            <g transform="matrix(1.15828,0,0,0.899589,88.3608,243.257)">
                <path d="M1761.88,1130.03L1712.9,1130.03L1715.16,1119.42L1761.88,1119.42L1761.88,1130.03Z" style="fill:rgb(217,217,217);"/>
            </g>
        </g>
        <g transform="matrix(1.15828,0,0,0.899589,88.3608,243.257)">
            <path d="M1697.85,1121.34L1697.39,1119.42L1698.31,1119.42L1697.85,1121.34Z" style="fill:rgb(217,217,217);"/>
        </g>
    </g>
    <g transform="matrix(0.454419,0,0,0.406315,-376.263,-353.02)">
        <rect x="1607.87" y="1119.42" width="13.31" height="10.603" style="fill:rgb(217,217,217);"/>
    </g>
    <g transform="matrix(0.454419,0,0,0.459702,-376.263,-413.348)">
        <path d="M1664.86,1119.42L1680.54,1119.42L1682.8,1130.03L1663.41,1130.03L1664.86,1119.42Z" style="fill:rgb(217,217,217);"/>
    </g>
    <g transform="matrix(0.304298,0,0,0.304298,-13.7193,-598.081)">
        <g>
            <g transform="matrix(0.854047,0,0,0.854047,-12.177,612.039)">
                <path d="M556.134,2325.38L612.801,2325.38C614.148,2325.47 614.676,2326.02 614.676,2327.03L614.676,2330.06L517.176,2330.06L517.176,2312.11L556.134,2312.11L556.134,2325.38Z" style="fill:rgb(234,43,85);"/>
            </g>
            <g transform="matrix(0.854047,0,0,0.854047,-12.177,612.039)">
                <path d="M517.176,2278.04L517.176,2242.36L614.676,2242.36L614.676,2245.18C614.676,2246.35 614.121,2246.97 612.801,2247.04L556.134,2247.04L556.134,2262.75L588.218,2269.24C589.19,2269.52 589.676,2270.15 589.676,2271.13L589.676,2278.04L517.176,2278.04Z" style="fill:rgb(234,43,85);"/>
            </g>
            <g transform="matrix(0.854047,0,0,0.854047,-13.3045,612.039)">
                <path d="M704.468,2291.85L704.468,2362.46C704.468,2363.51 703.9,2364.07 702.583,2364.13L667.186,2364.13C666.068,2364.13 665.509,2363.57 665.509,2362.46L665.509,2291.85L704.468,2291.85Z" style="fill:rgb(234,43,85);"/>
            </g>
            <g transform="matrix(0.854047,0,0,0.854047,-12.177,612.039)">
                <path d="M665.509,2257.79L665.509,2247.04L637.801,2247.04C636.551,2247.04 635.926,2246.42 635.926,2245.18L635.926,2242.36L733.843,2242.36L733.843,2245.18C733.843,2246.35 733.288,2246.97 731.968,2247.04L704.468,2247.04L704.468,2257.79L665.509,2257.79Z" style="fill:rgb(234,43,85);"/>
            </g>
            <g transform="matrix(1,0,0,1,-66.4669,288.272)">
                <g transform="matrix(0.854047,0,0,0.854047,49.8449,323.767)">
                    <path d="M855.934,2303.96L866.343,2362.25C866.343,2362.67 866.204,2363.16 865.926,2363.71C865.557,2364.08 865.134,2364.28 864.468,2364.34L829.051,2364.34C828.079,2364.34 827.454,2363.85 827.176,2362.88L817.593,2308.71L798.426,2308.71L798.426,2362.46C798.426,2363.64 797.874,2364.26 796.561,2364.34L761.333,2364.34C760.089,2364.34 759.468,2363.71 759.468,2362.46L759.468,2303.96L855.934,2303.96Z" style="fill:rgb(234,43,85);"/>
                </g>
                <g transform="matrix(0.854047,0,0,0.854047,54.2898,323.767)">
                    <path d="M759.468,2235.83L759.468,2209.96C759.468,2208.85 760.089,2208.29 761.333,2208.29L864.259,2208.29C864.815,2208.29 865.301,2208.5 865.718,2208.92C865.996,2209.2 866.134,2209.68 866.134,2210.38L861.671,2235.83L759.468,2235.83Z" style="fill:rgb(234,43,85);"/>
                </g>
                <g transform="matrix(1.21856,0,0,1,-323.701,-0.738731)">
                    <path d="M903.756,2263.1L878.225,2263.1L881.137,2243.76L863.616,2243.76L863.616,2263.1L836.311,2263.1L836.311,2234.01L907.942,2234.01L903.756,2263.1Z" style="fill:rgb(234,43,85);stroke:rgb(234,43,85);stroke-width:1px;"/>
                </g>
                <g transform="matrix(1.21856,0,0,1,-305.272,28.3543)">
                    <path d="M831.002,2263.1L831.002,2234.01L858.307,2234.01L858.307,2234.07L872.908,2234.07L872.916,2234.01L898.447,2234.01L896.416,2248.12L898.612,2263.1L831.002,2263.1Z" style="fill:rgb(234,43,85);stroke:rgb(234,43,85);stroke-width:1px;"/>
                </g>
            </g>
            <g transform="matrix(1,0,0,1,-378.686,288.272)">
                <g transform="matrix(0.854047,0,0,0.854047,49.8449,323.767)">
                    <path d="M855.934,2303.96L866.343,2362.25C866.343,2362.67 866.204,2363.16 865.926,2363.71C865.557,2364.08 865.134,2364.28 864.468,2364.34L829.051,2364.34C828.079,2364.34 827.454,2363.85 827.176,2362.88L817.593,2308.71L798.426,2308.71L798.426,2362.46C798.426,2363.64 797.874,2364.26 796.561,2364.34L761.333,2364.34C760.089,2364.34 759.468,2363.71 759.468,2362.46L759.468,2303.96L855.934,2303.96Z" style="fill:rgb(234,43,85);"/>
                </g>
                <g transform="matrix(0.854047,0,0,0.854047,54.2898,323.767)">
                    <path d="M759.468,2235.83L759.468,2209.96C759.468,2208.85 760.089,2208.29 761.333,2208.29L864.259,2208.29C864.815,2208.29 865.301,2208.5 865.718,2208.92C865.996,2209.2 866.134,2209.68 866.134,2210.38L861.671,2235.83L759.468,2235.83Z" style="fill:rgb(234,43,85);"/>
                </g>
                <g transform="matrix(1.21856,0,0,1,-323.701,-0.738731)">
                    <path d="M903.756,2263.1L878.225,2263.1L881.137,2243.76L863.616,2243.76L863.616,2263.1L836.311,2263.1L836.311,2234.01L907.942,2234.01L903.756,2263.1Z" style="fill:rgb(234,43,85);stroke:rgb(234,43,85);stroke-width:1px;"/>
                </g>
                <g transform="matrix(1.21856,0,0,1,-305.272,28.3543)">
                    <path d="M831.002,2263.1L831.002,2234.01L858.307,2234.01L858.307,2234.07L872.908,2234.07L872.916,2234.01L898.447,2234.01L896.416,2248.12L898.612,2263.1L831.002,2263.1Z" style="fill:rgb(234,43,85);stroke:rgb(234,43,85);stroke-width:1px;"/>
                </g>
            </g>
            <g transform="matrix(1,0,0,1,-66.4669,288.272)">
                <g transform="matrix(0.854047,0,0,0.854047,59.5575,323.767)">
                    <path d="M994.468,2269.9L994.468,2362.46C994.468,2363.64 993.913,2364.26 992.593,2364.34L899.051,2364.34C897.801,2364.34 897.176,2363.71 897.176,2362.46L897.176,2303.96L936.134,2303.96L936.134,2325.59L955.509,2325.59L955.509,2303.96L994.468,2303.96L994.468,2269.9Z" style="fill:rgb(234,43,85);"/>
                </g>
                <g transform="matrix(0.854047,0,0,0.854047,51.2839,321.539)">
                    <path d="M897.176,2239.95L897.176,2210.17C897.176,2208.92 897.801,2208.29 899.051,2208.29L992.593,2208.29C993.843,2208.29 994.468,2208.92 994.468,2210.17L994.468,2239.95L897.176,2239.95Z" style="fill:rgb(234,43,85);"/>
                </g>
                <g transform="matrix(1,0,0,1.13773,7.60423,-310.863)">
                    <path d="M903.612,2262.37L870.34,2262.37L870.34,2243.2L853.793,2243.2L853.793,2262.37L820.52,2262.37L820.52,2236.79L903.612,2236.79L903.612,2262.37Z" style="fill:rgb(234,43,85);stroke:rgb(234,43,85);stroke-width:0.57px;"/>
                </g>
                <g transform="matrix(1,0,0,1,2.31705,0)">
                    <g transform="matrix(1.06298,0,0,1,-70.3198,28.3543)">
                        <rect x="833.048" y="2234.01" width="31.301" height="29.093" style="fill:rgb(234,43,85);stroke:rgb(234,43,85);stroke-width:1px;"/>
                    </g>
                    <g transform="matrix(1.06298,0,0,1,-70.3198,28.3543)">
                        <rect x="879.915" y="2234.01" width="31.301" height="29.093" style="fill:rgb(234,43,85);stroke:rgb(234,43,85);stroke-width:1px;"/>
                    </g>
                </g>
            </g>
            <g transform="matrix(1.21856,0,0,1,-480.217,264.015)">
                <path d="M835.357,2263.1L835.357,2235.6C835.357,2234.54 835.795,2234.01 836.671,2234.01L902.669,2234.01C903.545,2234.01 903.983,2234.54 903.983,2235.6L903.983,2263.1L835.357,2263.1Z" style="fill:rgb(234,43,85);stroke:rgb(234,43,85);stroke-width:1px;"/>
            </g>
            <g transform="matrix(1.21856,0,0,1,-485.957,306.286)">
                <rect x="850.524" y="2234.01" width="27.305" height="29.093" style="fill:rgb(234,43,85);stroke:rgb(234,43,85);stroke-width:1px;"/>
            </g>
            <g transform="matrix(1.21856,0,0,1,-584.169,323.581)">
                <path d="M887.087,2234.01L887.087,2258.16C887.087,2258.64 886.941,2259.05 886.649,2259.41L885.773,2259.77L885.481,2259.77L863.579,2254.22L863.579,2263.1L836.274,2263.1L836.274,2234.01L887.087,2234.01Z" style="fill:rgb(234,43,85);stroke:rgb(234,43,85);stroke-width:1px;"/>
            </g>
            <g transform="matrix(1.21856,0,0,1,-579.696,368.011)">
                <path d="M900.938,2234.01L900.938,2261.51C900.938,2262.49 900.568,2263.01 899.624,2263.1L833.918,2263.1C833.042,2263.1 832.604,2262.57 832.604,2261.5L832.604,2234.01L900.938,2234.01Z" style="fill:rgb(234,43,85);stroke:rgb(234,43,85);stroke-width:1px;"/>
            </g>
            <g transform="matrix(1.21856,0,0,1,-580.545,264.015)">
                <path d="M835.503,2263.1L835.503,2235.43C835.503,2234.49 835.941,2234.01 836.817,2234.01L902.523,2234.01C903.399,2234.01 903.837,2234.48 903.837,2235.43L903.837,2263.1L835.503,2263.1Z" style="fill:rgb(234,43,85);stroke:rgb(234,43,85);stroke-width:1px;"/>
            </g>
            <g transform="matrix(0.556306,0,0,0.556306,79.2651,1345.3)">
                <path d="M520.415,2417.26L520.415,2491.01C520.415,2492.26 519.79,2492.89 518.54,2492.89L426.873,2493.1C425.623,2493.1 424.998,2492.47 424.998,2491.22L424.998,2338.93C424.998,2337.68 425.623,2337.05 426.873,2337.05L504.165,2337.05C505.137,2337.05 505.762,2337.54 506.04,2338.51L520.415,2417.26ZM463.956,2454.35L484.165,2454.35L484.165,2418L476.534,2375.8L463.956,2375.8L463.956,2454.35Z" style="fill:rgb(234,43,85);fill-rule:nonzero;"/>
            </g>
            <g transform="matrix(0.556306,0,0,0.556306,79.2651,1345.3)">
                <rect x="545.831" y="2442.28" width="38.958" height="37.214" style="fill:rgb(234,43,85);"/>
            </g>
            <g transform="matrix(0.556306,0,0,0.556306,79.2651,1345.3)">
                <rect x="545.831" y="2360.45" width="38.958" height="54.628" style="fill:rgb(234,43,85);"/>
            </g>
            <g transform="matrix(0.556306,0,0,0.556306,79.2651,1345.3)">
                <path d="M713.331,2457.6L713.331,2491.22C713.331,2492.42 712.761,2493.04 711.456,2493.1L676.248,2493.1C674.998,2493.1 674.373,2492.47 674.373,2491.22L674.373,2457.6L713.331,2457.6Z" style="fill:rgb(234,43,85);"/>
            </g>
            <g transform="matrix(0.556306,0,0,0.556306,79.2651,1345.3)">
                <path d="M654.79,2457.6L654.79,2491.22C654.79,2492.42 654.219,2493.04 652.915,2493.1L617.706,2493.1C616.456,2493.1 615.831,2492.47 615.831,2491.22L615.831,2457.6L654.79,2457.6Z" style="fill:rgb(234,43,85);"/>
            </g>
            <g transform="matrix(0.556306,0,0,0.556306,79.2651,1345.3)">
                <path d="M654.79,2430.39L615.831,2430.39L615.831,2350.66L713.331,2350.66L713.331,2430.39L674.373,2430.39L674.373,2382.68L654.79,2386.64L654.79,2430.39Z" style="fill:rgb(234,43,85);"/>
            </g>
            <g transform="matrix(0.556306,0,0,0.556306,79.2651,1345.3)">
                <path d="M782.915,2446.31L782.915,2454.35L802.29,2454.35L802.29,2446.31L841.248,2446.31L841.248,2484.39L743.956,2484.39L743.956,2446.31L782.915,2446.31Z" style="fill:rgb(234,43,85);"/>
            </g>
            <g transform="matrix(0.556306,0,0,0.556306,79.2651,1345.3)">
                <path d="M841.248,2419.1L802.29,2419.1L802.29,2376.22L782.915,2376.22L782.915,2419.1L743.956,2419.1L743.956,2356.7L841.248,2356.7L841.248,2419.1Z" style="fill:rgb(234,43,85);"/>
            </g>
            <g transform="matrix(0.556306,0,0,0.556306,79.2651,1345.3)">
                <path d="M931.456,2442.18L970.415,2442.18L970.415,2483.45L872.915,2483.45L872.915,2456.21C872.915,2454.97 873.54,2454.35 874.79,2454.35L931.456,2454.35L931.456,2442.18Z" style="fill:rgb(234,43,85);"/>
            </g>
            <g transform="matrix(0.556306,0,0,0.556306,79.2651,1345.3)">
                <path d="M970.415,2350.45L970.415,2374.14C970.415,2375.33 969.844,2375.96 968.54,2376.01L911.873,2376.01L911.873,2393.72L967.706,2404.76L968.123,2404.97L968.54,2404.97C969.844,2405.31 970.415,2405.92 970.415,2406.85L970.415,2414.97L872.915,2414.97L872.915,2350.45L970.415,2350.45Z" style="fill:rgb(234,43,85);"/>
            </g>
            <g transform="matrix(0.556306,0,0,0.556306,79.2651,1345.3)">
                <rect x="1006.46" y="2443.89" width="38.958" height="42.213" style="fill:rgb(234,43,85);"/>
            </g>
            <g transform="matrix(0.556306,0,0,0.556306,79.2651,1345.3)">
                <rect x="1065" y="2443.89" width="38.958" height="42.213" style="fill:rgb(234,43,85);"/>
            </g>
            <g transform="matrix(1,0,0,1,-66.4669,288.272)">
                <path d="M759.87,2401.45L705.63,2401.45L705.63,2368.54L759.87,2368.54L759.87,2401.45ZM738.197,2378.7L727.303,2378.7L727.303,2390.06L738.197,2392.26L738.197,2378.7Z" style="fill:rgb(234,43,85);"/>
            </g>
            <g transform="matrix(0.556306,0,0,0.556306,79.2651,1345.3)">
                <path d="M1236.66,2442.28L1236.66,2491.22C1236.66,2492.42 1236.09,2493.04 1234.79,2493.1L1140.83,2493.1C1139.58,2493.1 1138.96,2492.47 1138.96,2491.22L1138.96,2442.28L1177.91,2442.28L1177.91,2454.35L1197.71,2454.35L1197.71,2442.28L1236.66,2442.28Z" style="fill:rgb(234,43,85);"/>
            </g>
            <g transform="matrix(0.556306,0,0,0.556306,79.2651,1345.3)">
                <rect x="1138.96" y="2401.47" width="38.958" height="13.602" style="fill:rgb(234,43,85);"/>
            </g>
            <g transform="matrix(0.556306,0,0,0.556306,79.2651,1345.3)">
                <rect x="1197.71" y="2401.47" width="38.958" height="13.602" style="fill:rgb(234,43,85);"/>
            </g>
            <g transform="matrix(0.556306,0,0,0.556306,79.2651,1345.3)">
                <path d="M1138.96,2374.27L1138.96,2338.93C1138.96,2337.68 1139.58,2337.05 1140.83,2337.05L1176.04,2337.05C1177.29,2337.05 1177.91,2337.68 1177.91,2338.93L1177.91,2374.27L1138.96,2374.27Z" style="fill:rgb(234,43,85);"/>
            </g>
            <g transform="matrix(0.556306,0,0,0.556306,79.2651,1345.3)">
                <path d="M1197.71,2374.27L1197.71,2338.93C1197.71,2337.68 1198.33,2337.05 1199.58,2337.05L1234.79,2337.05C1236.04,2337.05 1236.66,2337.68 1236.66,2338.93L1236.66,2374.27L1197.71,2374.27Z" style="fill:rgb(234,43,85);"/>
            </g>
            <g transform="matrix(1,0,0,1,-66.4669,288.272)">
                <path d="M899.94,2408.12L906.132,2442.8C906.132,2443.03 906.055,2443.3 905.9,2443.61C905.709,2443.8 905.492,2443.91 905.089,2443.95L885.387,2443.95C884.846,2443.95 884.498,2443.68 884.344,2443.14L879.012,2413.01L868.35,2413.01L868.35,2442.91C868.35,2443.55 868.061,2443.89 867.312,2443.95L847.715,2443.95C847.023,2443.95 846.677,2443.61 846.677,2442.91L846.677,2408.12L899.94,2408.12Z" style="fill:rgb(234,43,85);"/>
            </g>
            <g transform="matrix(1,0,0,1,-66.4669,288.272)">
                <path d="M899.936,2392.99L846.677,2392.99L846.677,2372.28L903.566,2372.28L899.936,2392.99ZM882.257,2378.82L868.35,2378.82L868.35,2391.45L879.939,2391.45L882.257,2378.82Z" style="fill:rgb(234,43,85);"/>
            </g>
            <g transform="matrix(1.56389,0,0,1.56389,-36.8898,-2118.23)">
                <circle cx="857.635" cy="3022.19" r="4.697" style="fill:rgb(234,43,85);"/>
            </g>
            <g transform="matrix(1.56389,0,0,1.56389,-36.8898,-2092.65)">
                <circle cx="857.635" cy="3022.19" r="4.697" style="fill:rgb(234,43,85);"/>
            </g>
            <g transform="matrix(1.27222,0,0,1.27222,-198.297,-1399.2)">
                <circle cx="857.635" cy="3022.19" r="4.697" style="fill:rgb(234,230,221);"/>
            </g>
            <g transform="matrix(1.27222,0,0,1.27222,-297.758,-1416.03)">
                <circle cx="857.635" cy="3022.19" r="4.697" style="fill:rgb(234,230,221);"/>
            </g>
            <g transform="matrix(1.27222,0,0,1.27222,-330.113,-1416.03)">
                <circle cx="857.635" cy="3022.19" r="4.697" style="fill:rgb(234,230,221);"/>
            </g>
            <g transform="matrix(1.27222,0,0,1.27222,-229.655,-1416.03)">
                <circle cx="857.635" cy="3022.19" r="4.697" style="fill:rgb(234,230,221);"/>
            </g>
            <g transform="matrix(1.27222,0,0,1.27222,-263.762,-1416.03)">
                <circle cx="857.635" cy="3022.19" r="4.697" style="fill:rgb(234,230,221);"/>
            </g>
            <g transform="matrix(1.56389,0,0,1.56389,-36.8898,-2067.08)">
                <circle cx="857.635" cy="3022.19" r="4.697" style="fill:rgb(234,43,85);"/>
            </g>
            <g transform="matrix(0.968106,0,0,0.968106,-17.4999,366.22)">
                <path d="M1130.4,2209.79L1146.25,2209.79L1146.25,2194.46L1161.9,2194.46L1161.9,2209.79L1176.78,2209.79L1176.78,2194.46L1302.02,2194.46L1302.02,2210.58L1318.46,2210.58L1318.46,2226.23L1333.07,2226.23L1333.07,2272.81L1317.51,2272.81L1317.51,2256.37L1302.63,2256.37L1302.63,2272.42L1287.37,2272.42L1287.37,2257.54L1270.93,2257.54L1270.93,2287.29L1255.7,2287.29L1255.7,2272.81L1224.35,2272.81L1224.35,2304.51L1208.7,2304.51L1208.7,2287.68L1193.04,2287.68L1193.04,2304.9L1177.39,2304.9L1177.39,2288.07L1162.12,2288.07L1162.12,2304.9L1146.47,2304.9L1146.47,2287.68L1130.4,2287.68L1130.4,2304.12L1115.55,2304.12L1115.55,2288.07L1099.5,2288.07L1099.5,2303.73L1068.58,2303.73L1068.58,2319.21L1036.88,2319.21L1036.88,2334.26L1020.83,2334.26L1020.83,2351.09L1115.15,2351.09L1115.15,2335.04L1130.4,2335.04L1130.4,2351.48L1145.68,2351.48L1145.68,2365.96L1162.12,2365.96L1162.12,2350.69L1177,2350.69L1177,2381.22L1193.04,2381.22L1193.04,2366.74L1209.09,2366.74L1209.09,2397.66L1224.75,2397.66L1224.75,2381.61L1240.16,2381.61L1240.16,2397.27L1255.7,2397.27L1255.7,2382.4L1271.32,2382.4L1271.32,2412.14L1286.98,2412.14L1286.98,2398.05L1301.46,2398.05L1301.46,2429.37L1286.59,2429.37L1286.59,2443.95L1192.65,2443.95L1192.65,2428.58L1099.11,2428.58L1099.11,2398.7L1051.1,2398.7L1051.1,2383.05L1019.78,2383.05L1019.78,2367.39L988.995,2367.39L988.995,2382.53L973.861,2382.53L973.861,2398.18L1006.22,2398.18L1006.22,2413.84L973.861,2413.84L973.861,2443.95L943.593,2443.95L943.593,2427.93L927.731,2427.93L927.731,2365.96L943.974,2365.96L943.974,2335.04L959.163,2335.04L959.163,2319.21L990.083,2319.21L990.083,2304.51L1005.74,2304.51L1005.74,2272.42L1022.18,2272.42L1022.18,2256.37L1037.05,2256.37L1037.05,2225.06L1053.49,2225.06L1053.49,2210.97L1068.36,2210.97L1068.36,2194.46L1130.4,2194.46L1130.4,2209.79ZM1053.13,2226.89L1053.13,2256.95L1068.16,2256.95L1068.16,2272.98L1114.65,2272.98L1114.65,2257.15L1130.4,2257.15L1130.4,2225.69L1115.05,2225.69L1115.05,2211.46L1068.56,2211.46L1068.56,2227.09L1053.13,2226.89ZM1302.12,2211.46L1286.69,2211.46L1286.69,2225.49L1302.12,2225.49L1302.12,2211.46Z" style="fill:rgb(217,217,217);"/>
            </g>
            <g transform="matrix(1,0,0,1,-59.1609,290.707)">
                <path d="M468.483,2145.6L508.666,2105.42L830.792,2105.42" style="fill:none;stroke:rgb(234,230,221);stroke-width:10.42px;stroke-linejoin:miter;"/>
            </g>
            <g transform="matrix(1.06945,0,0,1.06945,-105.323,122.113)">
                <path d="M290.006,2450.41L335.065,2495.47L1300.96,2495.47L1327.54,2468.9L1327.54,2423.72C1327.54,2423.72 1352.96,2398.3 1352.96,2398.3L1352.96,2305.39L1324.44,2276.88C1324.44,2276.88 1324.44,2191.63 1324.44,2191.63L1288.01,2155.19L975.771,2155.19C975.771,2155.19 941.934,2121.36 941.934,2121.36L800.04,2121.36L761.942,2159.45C761.942,2159.45 620.259,2159.45 620.259,2159.45L598.954,2180.76C598.954,2180.76 550.074,2180.76 550.074,2180.76C550.074,2180.76 528.433,2159.12 528.433,2159.12L377.335,2159.12L350.512,2185.94C350.512,2185.94 302.187,2185.94 302.187,2185.94L273.384,2214.74L273.384,2289.08L290.006,2305.7C290.006,2305.7 290.006,2450.41 290.006,2450.41ZM341.52,2479.89L1294.51,2479.89L1311.95,2462.44L1311.95,2417.26L1337.38,2391.84L1337.38,2311.85L1308.86,2283.33L1308.86,2198.08L1281.56,2170.78L969.316,2170.78L935.479,2136.94L806.496,2136.94L768.397,2175.04L626.715,2175.04L605.409,2196.35L543.619,2196.35L521.978,2174.7L383.79,2174.7L356.967,2201.53L308.643,2201.53L288.969,2221.2L288.969,2282.62L305.59,2299.24L305.59,2443.95L341.52,2479.89Z" style="fill:rgb(234,230,221);"/>
            </g>
            <g transform="matrix(1.06945,0,0,1.06945,-105.323,122.113)">
                <path d="M341.52,2479.89L1294.51,2479.89L1311.95,2462.44L1311.95,2417.26L1337.38,2391.84L1337.38,2311.85L1308.86,2283.33L1308.86,2198.08L1281.56,2170.78L969.316,2170.78L935.479,2136.94L806.496,2136.94L768.397,2175.04L626.715,2175.04L605.409,2196.35L543.619,2196.35L521.978,2174.7L383.79,2174.7L356.967,2201.53L308.643,2201.53L288.969,2221.2L288.969,2282.62L305.59,2299.24L305.59,2443.95L341.52,2479.89Z" style="fill:none;stroke:rgb(88,155,170);stroke-width:9.74px;"/>
            </g>
            <g transform="matrix(1,0,0,1,-66.4669,288.272)">
                <path d="M499.377,2127.95L555.737,2127.95L569.889,2142.1L603.331,2142.1L617.482,2127.95L741.102,2127.95L761.193,2107.86" style="fill:none;stroke:rgb(234,230,221);stroke-width:3.82px;stroke-linecap:square;"/>
            </g>
            <g transform="matrix(1,0,0,1,-66.4669,288.272)">
                <path d="M573.128,2142.1L549.818,2142.1L535.741,2128.02" style="fill:none;stroke:rgb(234,230,221);stroke-width:3.82px;stroke-linejoin:miter;"/>
            </g>
            <g transform="matrix(1,0,0,1,-66.4669,288.272)">
                <path d="M554.434,2128.02L575.262,2128.02L588.57,2141.33" style="fill:none;stroke:rgb(234,230,221);stroke-width:3.82px;stroke-linecap:square;stroke-linejoin:miter;"/>
            </g>
            <g transform="matrix(1,0,0,1,-69.4728,288.272)">
                <path d="M571.887,2128.02L595.352,2128.02L606.231,2138.9" style="fill:none;stroke:rgb(234,230,221);stroke-width:3.82px;stroke-linejoin:miter;"/>
            </g>
            <g transform="matrix(1,0,0,1,-66.4669,288.272)">
                <path d="M590.593,2128.02L620.025,2128.02" style="fill:none;stroke:rgb(234,230,221);stroke-width:3.82px;stroke-linejoin:miter;"/>
            </g>
            <g transform="matrix(1,0,0,1,-66.4669,288.272)">
                <path d="M739.388,2128.02L797.941,2128.02" style="fill:none;stroke:rgb(234,230,221);stroke-width:3.82px;stroke-linecap:square;stroke-linejoin:miter;"/>
            </g>
            <g transform="matrix(6.12323e-17,-1,0.461538,2.82611e-17,-329.991,3816.52)">
                <path d="M1370.82,2343.76L1370.82,2378.65" style="fill:none;stroke:rgb(234,230,221);stroke-width:14.06px;"/>
            </g>
            <g transform="matrix(6.12323e-17,-1,0.461538,2.82611e-17,-296.443,3816.52)">
                <path d="M1370.82,2343.76L1370.82,2378.65" style="fill:none;stroke:rgb(234,230,221);stroke-width:14.06px;"/>
            </g>
            <g transform="matrix(6.12323e-17,-1,0.461538,2.82611e-17,-262.447,3816.52)">
                <path d="M1370.82,2343.76L1370.82,2378.65" style="fill:none;stroke:rgb(234,230,221);stroke-width:14.06px;"/>
            </g>
            <g transform="matrix(6.12323e-17,-1,0.461538,2.82611e-17,-228.787,3816.52)">
                <path d="M1370.82,2343.76L1370.82,2378.65" style="fill:none;stroke:rgb(234,230,221);stroke-width:14.06px;"/>
            </g>
            <g transform="matrix(0.631522,0,0,0.525862,281.096,1293.93)">
                <path d="M793.766,2600.31L793.766,2571.89C793.766,2570.66 794.314,2570.04 795.409,2570.04L886.077,2570.04C886.566,2570.04 886.995,2570.27 887.362,2570.74C887.606,2571.05 887.729,2571.59 887.729,2572.36L883.849,2600.31L793.766,2600.31Z" style="fill:rgb(234,43,85);"/>
            </g>
            <g transform="matrix(0.586957,0,0,0.661015,-102.56,1023.39)">
                <path d="M860.178,2570.04L860.178,2583.09C860.178,2584.42 859.635,2585.11 858.392,2585.17L824.843,2585.17C823.784,2585.17 823.254,2584.48 823.254,2583.09L823.254,2570.04L860.178,2570.04Z" style="fill:rgb(234,43,85);"/>
            </g>
            <g transform="matrix(0.586957,0,0,0.627117,-93.3917,1075.05)">
                <rect x="807.634" y="2570.04" width="36.924" height="30.268" style="fill:rgb(234,43,85);"/>
            </g>
            <g transform="matrix(0.586957,0,0,0.529565,-102.56,1282.17)">
                <path d="M823.254,2600.31L823.254,2576.37C823.254,2574.98 823.784,2574.28 824.843,2574.28L858.392,2574.28C859.583,2574.28 860.178,2574.98 860.178,2576.37L860.178,2600.31L823.254,2600.31Z" style="fill:rgb(234,43,85);"/>
            </g>
            <g transform="matrix(0.586957,0,0,0.658897,-48.5829,942.058)">
                <path d="M798.353,2600.31L798.353,2587.26C798.353,2585.87 798.946,2585.17 800.131,2585.17L833.5,2585.17C834.685,2585.17 835.277,2585.87 835.277,2587.26L835.277,2597.23L888.59,2585.17C889.117,2585.17 889.643,2585.33 890.17,2585.64C890.565,2586.1 890.762,2586.64 890.762,2587.26L890.762,2600.31L798.353,2600.31Z" style="fill:rgb(234,43,85);"/>
            </g>
            <g transform="matrix(0.586957,0,0,0.645655,-48.5829,1035.58)">
                <rect x="798.353" y="2570.04" width="36.924" height="30.268" style="fill:rgb(234,43,85);"/>
            </g>
            <g transform="matrix(0.586957,0,0,0.645655,-48.5829,1035.58)">
                <rect x="853.838" y="2570.04" width="36.924" height="30.268" style="fill:rgb(234,43,85);"/>
            </g>
            <g transform="matrix(0.586957,0,0,0.626047,27.2315,1031.19)">
                <path d="M798.452,2600.31L798.452,2580.53C798.452,2579.14 799.045,2578.45 800.229,2578.45L888.886,2578.45C890.071,2578.45 890.663,2579.14 890.663,2580.53L890.663,2600.31L798.452,2600.31Z" style="fill:rgb(234,43,85);"/>
            </g>
            <g transform="matrix(0.586957,0,0,0.615862,27.2315,1106.27)">
                <rect x="798.452" y="2570.04" width="36.924" height="30.268" style="fill:rgb(234,43,85);"/>
            </g>
            <g transform="matrix(0.586957,0,0,0.615862,27.2315,1106.27)">
                <rect x="853.739" y="2570.04" width="36.924" height="30.268" style="fill:rgb(234,43,85);"/>
            </g>
            <g transform="matrix(0.586957,0,0,0.784563,27.2315,708.272)">
                <path d="M890.663,2570.04L890.663,2577.64C890.663,2578.97 890.123,2579.66 888.886,2579.72L800.229,2579.72C799.045,2579.72 798.452,2579.03 798.452,2577.64L798.452,2570.04L890.663,2570.04Z" style="fill:rgb(234,43,85);"/>
            </g>
            <g transform="matrix(0.586957,0,0,0.729885,92.6252,758.424)">
                <path d="M798.353,2600.31L798.353,2587.26C798.353,2585.87 798.945,2585.17 800.128,2585.17L888.988,2585.17C890.171,2585.17 890.762,2585.87 890.762,2587.26L890.762,2600.31L798.353,2600.31Z" style="fill:rgb(234,43,85);"/>
            </g>
            <g transform="matrix(0.586957,0,0,0.729885,92.6252,810.148)">
                <path d="M798.353,2570.04L890.762,2570.04L890.762,2600.31L853.838,2600.31L853.838,2594.11L799.736,2581.57C799.209,2581.57 798.814,2581.26 798.551,2580.64C798.419,2580.34 798.353,2579.87 798.353,2579.25L798.353,2570.04Z" style="fill:rgb(234,43,85);"/>
            </g>
            <g transform="matrix(0.586957,0,0,0.856609,92.6252,521.514)">
                <path d="M890.762,2570.04L890.762,2578.69C890.762,2580.01 890.222,2580.71 888.988,2580.77L800.128,2580.77C798.945,2580.77 798.353,2580.08 798.353,2578.7L798.353,2570.04L890.762,2570.04Z" style="fill:rgb(234,43,85);"/>
            </g>
            <g transform="matrix(0.586957,0,0,0.577386,172.628,1157.2)">
                <path d="M798.353,2600.31L798.353,2579.38C798.353,2578.14 798.946,2577.52 800.131,2577.52L888.985,2577.52C890.17,2577.52 890.762,2578.22 890.762,2579.61L890.762,2600.31L798.353,2600.31Z" style="fill:rgb(234,43,85);"/>
            </g>
            <g transform="matrix(0.586957,0,0,0.574152,172.628,1213.33)">
                <path d="M835.277,2600.31L798.353,2600.31L798.353,2570.04L890.762,2570.04L890.762,2600.31L853.838,2600.31L853.838,2594.78L835.277,2590.61L835.277,2600.31Z" style="fill:rgb(234,43,85);"/>
            </g>
            <g transform="matrix(0.586957,0,0,0.685541,172.628,965.029)">
                <path d="M890.762,2570.04L890.762,2575.73C890.762,2577.06 890.221,2577.75 888.985,2577.82L855.615,2577.82C854.431,2577.82 853.838,2577.12 853.838,2575.73L853.838,2570.04L890.762,2570.04Z" style="fill:rgb(234,43,85);"/>
            </g>
            <g transform="matrix(0.586957,0,0,0.691241,172.628,950.379)">
                <path d="M835.277,2570.04L835.277,2575.73C835.277,2576.91 834.734,2577.53 833.491,2577.59L800.14,2577.59C798.949,2577.59 798.353,2576.97 798.353,2575.73L798.353,2570.04L835.277,2570.04Z" style="fill:rgb(234,43,85);"/>
            </g>
            <g transform="matrix(0.586957,0,0,0.559321,242.162,1227.75)">
                <rect x="798.255" y="2570.04" width="36.924" height="30.268" style="fill:rgb(234,43,85);"/>
            </g>
            <g transform="matrix(0.586957,0,0,0.559321,242.162,1227.75)">
                <rect x="853.937" y="2570.04" width="36.924" height="30.268" style="fill:rgb(234,43,85);"/>
            </g>
            <g transform="matrix(0.586957,0,0,0.580508,242.162,1195.36)">
                <rect x="798.255" y="2570.04" width="36.924" height="30.268" style="fill:rgb(234,43,85);"/>
            </g>
            <g transform="matrix(0.586957,0,0,0.580508,242.162,1195.36)">
                <rect x="853.937" y="2570.04" width="36.924" height="30.268" style="fill:rgb(234,43,85);"/>
            </g>
            <g transform="matrix(0.586957,0,0,0.548596,313.868,1270.76)">
                <path d="M888.243,2585.29L890.527,2600.31L799.783,2600.31L799.783,2570.04L890.52,2570.04L888.243,2585.29Z" style="fill:rgb(234,43,85);"/>
            </g>
        </g>
    </g>
</svg>
